<?xml version="1.0" standalone="no"?>
<!DOCTYPE svg PUBLIC "-//W3C//DTD SVG 1.1//EN" "http://www.w3.org/Graphics/SVG/1.1/DTD/svg11.dtd" >
<svg xmlns="http://www.w3.org/2000/svg" xmlns:xlink="http://www.w3.org/1999/xlink" version="1.1">
<metadata>
Created by FontForge 20201107 at Sat Dec 19 06:22:26 2020
 By 
Copyright (c) 2020, Sandylukee
</metadata>
<defs>
<font id="TangoSans_Bold" horiz-adv-x="654" >
  <font-face 
    font-family="TangoSans"
    font-weight="700"
    font-stretch="normal"
    units-per-em="1000"
    panose-1="2 0 8 3 0 0 0 0 0 0"
    ascent="800"
    descent="-200"
    x-height="556"
    cap-height="705"
    bbox="-112 -297 1131 986"
    underline-thickness="50"
    underline-position="-100"
    unicode-range="U+0020-2122"
  />
<missing-glyph horiz-adv-x="364" 
d="M33 0v666h265v-666h-265zM66 33h199v600h-199v-600z" />
    <glyph glyph-name=".notdef" horiz-adv-x="364" 
d="M33 0v666h265v-666h-265zM66 33h199v600h-199v-600z" />
    <glyph glyph-name=".null" horiz-adv-x="0" 
 />
    <glyph glyph-name="nonmarkingreturn" horiz-adv-x="333" 
 />
    <glyph glyph-name="space" unicode=" " horiz-adv-x="300" 
 />
    <glyph glyph-name="exclam" unicode="!" horiz-adv-x="250" 
d="M125 -28q-39 0 -66 26t-27 68t26.5 67.5t66.5 25.5t67 -25t27 -68q0 -42 -27 -68t-67 -26zM199 177h-147h-15v15l-14 513v15h15h176h15v-15l-15 -513v-15h-15z" />
    <glyph glyph-name="quotedbl" unicode="&#x22;" horiz-adv-x="438" 
d="M317 747q42 0 70.5 -26.5t28.5 -72.5v-3q0 -14 -1.5 -30.5t-10 -50t-24 -58.5t-47.5 -45t-75 -20h-15v15v48v15h15q15 0 28.5 9t17.5 22q-70 9 -84 75q-2 -20 -5.5 -40t-14.5 -47.5t-27 -47.5t-45 -34.5t-66 -14.5h-15v15v48v15h15q15 0 29 9t18 22q-37 4 -61.5 30.5
t-24.5 67.5q0 46 28.5 72.5t70.5 26.5q37 0 64.5 -21.5t33.5 -58.5q6 37 33 58.5t64 21.5z" />
    <glyph glyph-name="numbersign" unicode="#" horiz-adv-x="833" 
d="M273 770h146h18l-3 -18l-33 -160h118l33 166l3 12h12h146h18l-3 -18l-33 -160h101h18l-3 -18l-27 -135l-3 -12h-12h-107l-21 -99h101h18l-3 -18l-26 -135l-3 -12h-12h-108l-33 -166l-3 -12h-12h-146h-18l3 18l34 160h-119l-33 -166l-3 -12h-12h-146h-18l3 18l34 160h-101
h-18l3 18l26 135l3 12h12h108l20 99h-101h-18l3 18l27 135l3 12h12h107l33 166l3 12h12zM368 427l-21 -99h119l20 99h-118z" />
    <glyph glyph-name="dollar" unicode="$" horiz-adv-x="685" 
d="M426 255v-92q29 17 29 55q0 21 -29 37zM267 535q-12 -15 -12 -43q0 -12 12 -21v64zM316 826h61h49v-114q60 -11 111.5 -37t71 -43t23.5 -23l8 -8l-7 -9l-85 -105l-11 -15l-13 14q-41 40 -98 62v-120q48 -11 83 -25t70.5 -38.5t54.5 -64.5t19 -94q0 -83 -62 -138.5
t-165 -73.5v-115h-159v114q-139 20 -222 103l-7 7l6 8l73 110l11 17l13 -15q5 -5 14.5 -13.5t42.5 -27t69 -27.5v144q-45 11 -77 24.5t-65 36t-50 58.5t-17 84q0 86 58 139t151 69v116h49z" />
    <glyph glyph-name="percent" unicode="%" horiz-adv-x="641" 
d="M41 566q0 63 38 104.5t96 41.5q62 0 103.5 -41.5t41.5 -104.5t-41.5 -104.5t-103.5 -41.5q-58 0 -96 41.5t-38 104.5zM471 705h10h110h26l-12 -21l-417 -677l-4 -7h-10h-111h-25l12 21l417 676zM210 566q0 22 -10.5 33.5t-24.5 11.5t-24.5 -11.5t-10.5 -33.5t10.5 -33.5
t24.5 -11.5t24.5 11.5t10.5 33.5zM329 138q0 63 41 105t103 42q58 0 96 -42t38 -105t-38 -104.5t-96 -41.5q-62 0 -103 41.5t-41 104.5zM507 139q0 22 -10.5 33.5t-23.5 11.5q-14 0 -24.5 -11.5t-10.5 -33.5t10.5 -33.5t24.5 -11.5q13 0 23.5 11.5t10.5 33.5z" />
    <glyph glyph-name="ampersand" unicode="&#x26;" horiz-adv-x="784" 
d="M452 431q-19 -40 -52 -68q-8 -8 -18 -14l63 -58q7 42 7 65v68v7zM456 439h11h257h15v-15v-135v-15h-15h-113q-8 -49 -31 -100l177 -163l28 -26h-38h-197h-6l-4 4q-42 37 -61 54q-91 -70 -214 -70q-99 0 -170.5 64.5t-71.5 165.5q0 117 97 189q-41 67 -41 131
q0 87 59 146.5t137 59.5h2q86 -1 141 -58t55 -149q0 -44 -17 -83zM277 564h-1q-31 0 -31 -41q0 -23 20 -52q43 26 43 51q0 42 -31 42zM233 268q-24 -14 -35 -27t-11 -38q0 -28 22.5 -46.5t55.5 -18.5q47 0 89 21z" />
    <glyph glyph-name="quotesingle" unicode="'" horiz-adv-x="243" 
d="M122 747q42 0 70.5 -26.5t28.5 -72.5v-2q0 -10 -1 -22t-5 -39t-15 -49.5t-27 -45t-45 -36t-66 -13.5h-15v15v48v15h15q15 0 29 9t18 22q-37 4 -61.5 30.5t-24.5 67.5q0 46 28.5 72.5t70.5 26.5z" />
    <glyph glyph-name="parenleft" unicode="(" horiz-adv-x="339" 
d="M158 783h144h24l-10 -21q-4 -9 -11.5 -26t-26 -68t-33 -102t-26 -121.5t-11.5 -132.5q0 -99 27 -211.5t54 -175.5l27 -63l10 -21h-24h-144h-8l-5 7l-1 1q-70 115 -102 276q-19 93 -19 187q0 77 13 154t29.5 128t37 97.5t29.5 62.5t14 23l4 6h8z" />
    <glyph glyph-name="parenright" unicode=")" horiz-adv-x="339" 
d="M195 776l1 -1q70 -115 102 -276q19 -93 19 -187q0 -77 -13 -154t-29.5 -128t-37 -97.5t-29.5 -62.5t-14 -23l-4 -6h-8h-144h-24l10 21q4 9 11.5 26t26 68t33 102t26 121.5t11.5 132.5q0 99 -27 211.5t-54 175.5l-27 63l-10 21h24h144h8z" />
    <glyph glyph-name="asterisk" unicode="*" horiz-adv-x="433" 
d="M176 767h82h16l-1 -16l-3 -77l78 49l13 8l8 -14l41 -72l8 -13l-14 -7l-95 -53l95 -53l14 -7l-8 -13l-41 -72l-8 -14l-13 8l-78 49l3 -77l1 -16h-16h-82h-16l1 16l3 77l-77 -49l-13 -8l-8 14l-41 72l-8 13l14 7l95 53l-95 53l-14 7l8 13l41 72l8 14l13 -8l77 -49l-3 77
l-1 16h16z" />
    <glyph glyph-name="plus" unicode="+" horiz-adv-x="667" 
d="M262 691h144h15v-15v-209h210h15v-15v-144v-15h-15h-210v-210v-15h-15h-144h-15v15v210h-209h-15v15v144v15h15h209v209v15h15z" />
    <glyph glyph-name="comma" unicode="," horiz-adv-x="243" 
d="M122 171q42 0 70.5 -26.5t28.5 -72.5v-2q0 -8 -0.5 -17.5t-3.5 -31.5t-9 -40.5t-18 -41t-28 -38.5t-42 -26.5t-58 -10.5h-15v15v48v15h15q15 0 29 9t18 22q-38 5 -62 31t-24 68q0 46 28.5 72.5t70.5 26.5z" />
    <glyph glyph-name="hyphen" unicode="-" horiz-adv-x="447" 
d="M38 429h372h15v-15v-145v-15h-15h-372h-15v15v145v15h15z" />
    <glyph glyph-name="period" unicode="." horiz-adv-x="243" 
d="M122 171q42 0 70.5 -26.5t28.5 -72.5q0 -45 -29 -72.5t-70 -27.5t-70 27.5t-29 72.5q0 46 28.5 72.5t70.5 26.5z" />
    <glyph glyph-name="slash" unicode="/" horiz-adv-x="532" 
d="M350 775h146h22l-8 -21l-312 -760l-4 -9h-10h-146h-22l8 21l312 760l4 9h10z" />
    <glyph glyph-name="zero" unicode="0" horiz-adv-x="722" 
d="M22 352q0 159 95.5 262.5t244.5 103.5t243.5 -103t94.5 -263t-94.5 -262.5t-243.5 -102.5q-148 0 -244 103t-96 262zM511 352q0 85 -43 138t-106 53t-107 -53t-44 -138t44 -137.5t107 -52.5t106 52.5t43 137.5z" />
    <glyph glyph-name="one" unicode="1" horiz-adv-x="365" 
d="M172 705h15h126h15v-15v-675v-15h-15h-155h-15v15v424h-120h-15v15v119v15h15q149 0 149 102v15z" />
    <glyph glyph-name="two" unicode="2" horiz-adv-x="687" 
d="M67 605q113 113 279 113q80 0 144.5 -22.5t107 -73t42.5 -123.5q0 -53 -27.5 -98.5t-69.5 -75t-92 -56t-94 -43.5t-78 -36t-42 -35h398h15v-15v-138v-15h-15h-582h-15v15v100q0 61 30 112.5t75 84t97.5 61.5t97.5 47t75 37.5t30 36.5q0 37 -21.5 51.5t-75.5 14.5
q-42 0 -84.5 -19t-64.5 -38l-22 -19l-13 -13l-11 14l-85 114l-7 10z" />
    <glyph glyph-name="three" unicode="3" horiz-adv-x="640" 
d="M32 605q113 113 278 113q80 0 145 -22.5t107.5 -74t42.5 -125.5q0 -90 -87 -135q104 -37 104 -149q0 -102 -87 -163.5t-222 -61.5q-185 0 -299 114l-6 8l6 9l73 118l11 17l13 -15l9 -9t24.5 -18t41.5 -23.5t55.5 -18t71.5 -8.5q112 0 112 64q0 28 -24.5 42t-90.5 14h-114
h-16v15v120v15h16h114q57 0 77 10.5t20 43.5q0 35 -21.5 48.5t-75.5 13.5q-42 0 -84 -19t-64 -38l-21 -19l-14 -14l-11 15l-85 114l-7 10z" />
    <glyph glyph-name="four" unicode="4" horiz-adv-x="627" 
d="M347 705h8h168h15v-15v-441h67h15v-15v-118v-15h-15h-67v-86v-15h-15h-168h-16v15v86h-316h-15v15v115v4l3 4l331 459zM339 249v174l-126 -174h126z" />
    <glyph glyph-name="five" unicode="5" horiz-adv-x="678" 
d="M117 705h13h152h298h15v-15v-144v-15h-15h-300l-11 -73q56 18 111 18q127 0 199.5 -68.5t72.5 -181.5q0 -111 -86.5 -175t-222.5 -64q-185 0 -299 114l-6 8l6 9l73 118l11 17l13 -15l9 -9t24.5 -18t41.5 -23.5t55.5 -18t71.5 -8.5q112 0 112 66q0 35 -26.5 60.5
t-85.5 25.5q-36 0 -66 -9.5t-43 -18.5l-12 -9l-8 -7l-10 4l-124 53l-10 4l2 11l44 351z" />
    <glyph glyph-name="six" unicode="6" horiz-adv-x="636" 
d="M22 352q0 161 88.5 263.5t238.5 102.5q149 0 243 -107l10 -11l-11 -10l-110 -104l-13 -12l-11 14q-43 55 -108 55q-46 0 -79 -27t-48 -77q60 39 138 39q121 0 187.5 -61t66.5 -163q0 -131 -78 -199t-216 -68q-139 0 -218.5 96t-79.5 269zM436 261q0 35 -25 60.5t-71 25.5
q-50 0 -81 -20t-39 -48q26 -117 113 -117q48 0 75.5 24.5t27.5 74.5z" />
    <glyph glyph-name="seven" unicode="7" horiz-adv-x="609" 
d="M8 705h15h564h15v-15v-114v-7l-6 -4q-11 -8 -30 -23.5t-68 -69t-86 -113t-67.5 -153t-30.5 -191.5v-15h-17h-195h-15v15q0 84 30 170t77.5 155t85 113t73.5 78h-330h-15v15v144v15z" />
    <glyph glyph-name="eight" unicode="8" horiz-adv-x="677" 
d="M53 500q0 96 81.5 157t204.5 61t204.5 -61t81.5 -157q0 -81 -68 -129q99 -52 99 -157q0 -101 -90 -164t-227 -63t-227 63t-90 164q0 106 99 157q-68 49 -68 129zM439 484q0 25 -28 42.5t-72 17.5t-72 -17.5t-28 -42.5t27.5 -42t72.5 -17t72.5 17t27.5 42zM471 220
q0 32 -37 53.5t-95 21.5t-95 -21.5t-37 -53.5t37 -54t95 -22t95 22t37 54z" />
    <glyph glyph-name="nine" unicode="9" horiz-adv-x="636" 
d="M279 227q-121 0 -189 61.5t-68 163.5q0 131 78.5 198.5t216.5 67.5q139 0 218 -96t79 -270q0 -161 -88.5 -263t-238.5 -102q-149 0 -243 107l-10 11l11 10l111 105l13 12l11 -14q44 -56 107 -56q46 0 79 27t48 77q-62 -39 -135 -39zM417 427q-26 116 -114 116
q-102 0 -102 -98q0 -35 25 -60.5t72 -25.5q50 0 80.5 19.5t38.5 48.5z" />
    <glyph glyph-name="colon" unicode=":" horiz-adv-x="243" 
d="M122 571q41 0 70 -27.5t29 -72.5q0 -46 -28.5 -72.5t-70.5 -26.5t-70.5 26.5t-28.5 72.5q0 45 29 72.5t70 27.5zM122 171q42 0 70.5 -26.5t28.5 -72.5q0 -45 -29 -72.5t-70 -27.5t-70 27.5t-29 72.5q0 46 28.5 72.5t70.5 26.5z" />
    <glyph glyph-name="semicolon" unicode=";" horiz-adv-x="243" 
d="M122 571q41 0 70 -27.5t29 -72.5q0 -46 -28.5 -72.5t-70.5 -26.5t-70.5 26.5t-28.5 72.5q0 45 29 72.5t70 27.5zM122 171q42 0 70.5 -26.5t28.5 -72.5v-2q0 -8 -0.5 -17.5t-3.5 -31.5t-9 -40.5t-18 -41t-28 -38.5t-42 -26.5t-58 -10.5h-15v15v48v15h15q15 0 29 9t18 22
q-38 5 -62 31t-24 68q0 46 28.5 72.5t70.5 26.5z" />
    <glyph glyph-name="less" unicode="&#x3c;" horiz-adv-x="660" 
d="M638 667v-163v-10l-10 -4l-331 -125l331 -125l10 -4v-10v-163v-22l-20 8l-585 221l-10 4v10v162v10l10 4l585 221l20 8v-22z" />
    <glyph glyph-name="equal" unicode="=" horiz-adv-x="667" 
d="M38 590h593h15v-15v-145v-15h-15h-593h-15v15v145v15h15zM38 344h593h15v-15v-145v-15h-15h-593h-15v15v145v15h15z" />
    <glyph glyph-name="greater" unicode="&#x3e;" horiz-adv-x="660" 
d="M43 681l585 -221l10 -4v-10v-162v-10l-10 -4l-585 -221l-20 -8v22v163v10l10 4l331 125l-331 125l-10 4v10v163v22z" />
    <glyph glyph-name="question" unicode="?" horiz-adv-x="555" 
d="M268 733q116 0 190.5 -53.5t74.5 -165.5q0 -54 -22 -94t-53.5 -64.5t-63.5 -46.5t-54 -51t-22 -66v-15h-15h-151h-15v15q0 65 21 115t51.5 78t61 49t51.5 40.5t21 40.5q0 28 -13.5 37.5t-61.5 9.5q-79 0 -132 -73l-1 -1l-12 -18l-13 17l-84 114l-6 9l6 8l1 1
q9 12 21.5 24.5t42.5 36t76.5 38.5t100.5 15zM227 171q42 0 71 -27t29 -72q0 -46 -29 -73t-71 -27q-41 0 -70 27.5t-29 72.5q0 46 28.5 72.5t70.5 26.5z" />
    <glyph glyph-name="at" unicode="@" horiz-adv-x="1092" 
d="M628 825q103 0 192 -39.5t151 -113.5q100 -122 100 -286q0 -34 -7 -83q-10 -66 -32 -124t-56.5 -109t-88.5 -81t-121 -30q-42 0 -74 12t-51 31.5t-28.5 36.5t-15.5 35q-63 -43 -143 -43q-101 0 -160 61.5t-59 160.5q0 28 4 55q20 120 102.5 196.5t196.5 76.5
q78 0 125 -38l2 15l2 13h13h131h18l-3 -17l-69 -426q-2 -11 -2 -26q0 -41 22 -41q61 0 111.5 60t70.5 186q6 33 6 67q0 132 -78 225q-49 58 -119.5 89.5t-151.5 31.5q-172 0 -313 -122q-68 -59 -112 -136t-57 -159q-5 -27 -5 -66q0 -132 78 -225q49 -58 119.5 -89.5
t151.5 -31.5q83 0 159 14.5t111 28.5l35 15l22 11v-24q0 -3 -2.5 -27t-5.5 -47l-3 -24l-1 -9l-9 -3q-7 -3 -36 -11t-109 -19t-173 -11q-104 0 -193.5 40t-150.5 113q-99 120 -99 287q0 40 6 82q17 105 71 200t138 166q85 72 186 112t204 40zM533 435q-50 0 -88.5 -36.5
t-48.5 -95.5q-2 -9 -2 -25q0 -46 26 -73t68 -27q50 0 88.5 36t48.5 95q2 9 2 25q0 46 -26 73.5t-68 27.5z" />
    <glyph glyph-name="A" unicode="A" horiz-adv-x="793" 
d="M298 705h11h190h11l4 -10l278 -675l8 -20h-22h-172h-11l-4 10l-46 117h-282l-46 -117l-4 -10h-11h-172h-22l8 20l278 675zM479 279l-75 195l-76 -195h151z" />
    <glyph glyph-name="B" unicode="B" horiz-adv-x="612" 
d="M38 705h15h218q295 0 295 -208q0 -79 -66 -127q40 -20 65 -58t25 -88q0 -224 -319 -224h-218h-15v15v675v15zM271 538h-41v-93h41q70 0 93 9t23 41q0 28 -22.5 35.5t-93.5 7.5zM271 277h-41v-110h41q78 0 111 13t33 46q0 30 -35 40.5t-109 10.5z" />
    <glyph glyph-name="C" unicode="C" horiz-adv-x="751" 
d="M22 352q0 160 111 262.5t281 102.5q99 0 181 -38t132 -106l9 -12l-12 -9l-123 -96l-12 -9l-10 12q-59 73 -165 73q-88 0 -146.5 -50.5t-58.5 -129.5t58.5 -129.5t146.5 -50.5q103 0 165 75l10 12l12 -9l123 -97l12 -9l-9 -12q-50 -69 -132 -107t-181 -38
q-170 0 -281 102.5t-111 262.5z" />
    <glyph glyph-name="D" unicode="D" horiz-adv-x="716" 
d="M38 0v15v675v15h15h246q173 0 284.5 -97.5t111.5 -255.5t-112 -255t-284 -97h-246h-15zM299 538h-71v-371h71q89 0 148.5 52.5t59.5 132.5t-60 133t-148 53z" />
    <glyph glyph-name="E" unicode="E" horiz-adv-x="622" 
d="M38 0v15v675v15h15h160h358h15v-15v-137v-15h-15h-341v-101h308h15v-15v-138v-15h-15h-308v-102h341h15v-15v-137v-15h-15h-358h-160h-15z" />
    <glyph glyph-name="F" unicode="F" horiz-adv-x="622" 
d="M38 0v15v675v15h15h160h358h15v-15v-137v-15h-15h-341v-130h308h15v-15v-137v-15h-15h-308v-226v-15h-17h-160h-15z" />
    <glyph glyph-name="G" unicode="G" horiz-adv-x="780" 
d="M22 352q0 160 111.5 263t280.5 103q99 0 180.5 -38t132.5 -107l9 -12l-12 -9l-123 -96l-13 -9l-10 12q-59 73 -164 73q-88 0 -146 -50.5t-58 -129.5t58 -129.5t146 -50.5q104 0 161 42v47h-112h-16v15v112v15h16h128h137h15v-14v-253v-5l-3 -4q-51 -65 -139 -102.5
t-187 -37.5q-169 0 -280.5 103t-111.5 262z" />
    <glyph glyph-name="H" unicode="H" horiz-adv-x="753" 
d="M38 705h15h159h16v-15v-260h298v260v15h16h159h15v-15v-675v-15h-15h-159h-16v15v248h-298v-248v-15h-16h-159h-15v15v675v15z" />
    <glyph glyph-name="I" unicode="I" horiz-adv-x="259" 
d="M38 705h15h155h15v-15v-675v-15h-15h-155h-15v15v675v15z" />
    <glyph glyph-name="J" unicode="J" horiz-adv-x="556" 
d="M328 705h17h161h15v-15v-388q0 -167 -70.5 -241t-223.5 -74q-58 0 -112 20.5t-73 34t-27 21.5l-7 6l3 9l51 143l7 20l17 -13q8 -6 22.5 -15.5t51.5 -25t67 -15.5q26 0 42.5 2t28 9.5t17.5 14.5t9 27t3.5 35.5t0.5 49.5v380v15z" />
    <glyph glyph-name="K" unicode="K" horiz-adv-x="727" 
d="M38 705h15h159h16v-15v-265l276 275l4 5h7h186h35l-24 -24l-285 -276l291 -382l17 -23h-29h-181h-8l-5 6l-216 287l-68 -69v-209v-15h-16h-159h-15v15v226v449v15z" />
    <glyph glyph-name="L" unicode="L" horiz-adv-x="534" 
d="M38 705h15h162h17v-15v-523h281h15v-15v-137v-15h-15h-460h-15v15v675v15z" />
    <glyph glyph-name="M" unicode="M" horiz-adv-x="933" 
d="M38 705h15h178h8l5 -7l222 -350l224 350l5 7h8h178h15v-15v-675v-15h-15h-158h-15v15v400l-229 -353l-13 -21l-14 21l-226 353v-400v-15h-15h-158h-15v15v675v15z" />
    <glyph glyph-name="N" unicode="N" horiz-adv-x="776" 
d="M38 705h15h179h8l5 -7l304 -433v425v15h16h160h15v-15v-675v-15h-15h-179h-8l-5 7l-305 434v-426v-15h-17h-158h-15v15v675v15z" />
    <glyph glyph-name="O" unicode="O" horiz-adv-x="823" 
d="M22 352q0 160 111 262.5t279 102.5t278.5 -102.5t110.5 -262.5t-110.5 -262.5t-278.5 -102.5t-279 102.5t-111 262.5zM615 352q0 79 -58 129.5t-145 50.5t-145 -50.5t-58 -129.5t58 -129.5t145 -50.5t145 50.5t58 129.5z" />
    <glyph glyph-name="P" unicode="P" horiz-adv-x="642" 
d="M38 705h15h160h85q162 0 242 -63.5t80 -168.5q0 -106 -80 -169t-242 -63h-69v-226v-15h-16h-160h-15v15v675v15zM298 538h-69v-130h69q80 0 113.5 14.5t33.5 50.5t-33.5 50.5t-113.5 14.5z" />
    <glyph glyph-name="Q" unicode="Q" horiz-adv-x="823" 
d="M22 352q0 160 111 263t279 103t278.5 -103t110.5 -263q0 -109 -53 -195l48 -46l10 -10l-10 -9v-1l-110 -106l-12 -10l-11 10l-52 50q-93 -48 -199 -48q-168 0 -279 102.5t-111 262.5zM615 352q0 79 -58 129.5t-145 50.5t-144.5 -50.5t-57.5 -129.5t57.5 -129.5
t144.5 -50.5q25 0 48 5l-46 40l-11 10l11 9l118 102l11 10l11 -10l51 -45q10 27 10 59z" />
    <glyph glyph-name="R" unicode="R" horiz-adv-x="669" 
d="M38 705h15h159h85q163 0 243 -62.5t80 -166.5q0 -134 -116 -192l141 -263l11 -21h-24h-164h-11l-4 9l-123 232h-33h-68v-226v-15h-17h-159h-15v15v675v15zM297 538h-68v-130h68q80 0 113 14.5t33 50.5t-33 50.5t-113 14.5z" />
    <glyph glyph-name="S" unicode="S" horiz-adv-x="671" 
d="M243 488q0 -15 42.5 -27t103 -26.5t121 -37.5t103 -70.5t42.5 -114.5q0 -112 -83.5 -168.5t-232.5 -56.5q-181 0 -307 84l-10 8l7 12l75 123l8 13l13 -8q13 -8 34.5 -19t81.5 -29.5t111 -18.5q35 0 58.5 6.5t33 17.5t12.5 20.5t3 21.5q0 19 -23 33.5t-59.5 24.5t-80.5 20
t-88 25.5t-80.5 36t-59.5 55.5t-23 81q0 108 88 166t213 58q62 0 117.5 -13t92.5 -33t54 -31t29 -21l1 -1l8 -7l-6 -11l-72 -116l-9 -14l-13 10q-4 4 -29 18.5t-80 32.5t-108 18q-51 0 -69.5 -19.5t-18.5 -42.5z" />
    <glyph glyph-name="T" unicode="T" horiz-adv-x="627" 
d="M8 705h15h582h15v-15v-137v-15h-15h-191v-523v-15h-16h-169h-16v15v523h-190h-15v15v137v15z" />
    <glyph glyph-name="U" unicode="U" horiz-adv-x="753" 
d="M38 705h15h159h16v-15v-334q0 -86 38.5 -135t109.5 -49t110.5 49t39.5 135v334v15h16h159h15v-15v-339q0 -171 -94 -267.5t-246 -96.5t-245 96.5t-93 267.5v339v15z" />
    <glyph glyph-name="V" unicode="V" horiz-adv-x="793" 
d="M8 705h22h172h11l4 -10l187 -478l187 478l4 10h11h172h22l-8 -20l-278 -675l-4 -10h-11h-190h-11l-4 10l-278 675z" />
    <glyph glyph-name="W" unicode="W" horiz-adv-x="1126" 
d="M8 705h21h170h12l3 -10l154 -464l108 462l3 12h12h157h12l3 -12l107 -462l154 464l3 10h12h171h21l-7 -19l-247 -676l-4 -10h-11h-187h-13l-2 11l-91 347l-91 -347l-3 -11h-12h-187h-11l-4 10l-246 676z" />
    <glyph glyph-name="X" unicode="X" horiz-adv-x="808" 
d="M8 705h30h194h9l4 -7l174 -240l174 241l5 6h8h195h30l-18 -23l-264 -330l264 -329l18 -23h-30h-195h-8l-5 6l-174 241l-174 -240l-4 -7h-9h-194h-30l18 23l263 329l-263 330z" />
    <glyph glyph-name="Y" unicode="Y" horiz-adv-x="802" 
d="M8 705h26h178h9l4 -8l187 -311l188 311l5 8h9h177h27l-14 -22l-295 -461v-207v-15h-15h-163h-16v15v207l-294 461z" />
    <glyph glyph-name="Z" unicode="Z" horiz-adv-x="762" 
d="M58 705h15h616h15v-15v-92v-5l-3 -4l-372 -422h381h15v-15v-137v-15h-15h-657h-15v15v92v5l3 4l370 422h-338h-15v15v137v15z" />
    <glyph glyph-name="bracketleft" unicode="[" horiz-adv-x="372" 
d="M38 775h296h15v-15v-90v-15h-15h-126v-825h126h15v-15v-91v-15h-15h-296h-15v15v1036v15h15z" />
    <glyph glyph-name="backslash" unicode="\" horiz-adv-x="532" 
d="M198 766l312 -760l8 -21h-22h-146h-10l-4 9l-312 760l-8 21h22h146h10z" />
    <glyph glyph-name="bracketright" unicode="]" horiz-adv-x="372" 
d="M349 760v-1036v-15h-15h-296h-15v15v91v15h15h127v825h-127h-15v15v90v15h15h296h15v-15z" />
    <glyph glyph-name="asciicircum" unicode="^" horiz-adv-x="394" 
d="M153 720h89h9l4 -8l115 -208l12 -22h-25h-89h-9l-4 8l-58 104l-57 -104l-4 -8h-9h-89h-25l12 22l115 208l4 8h9z" />
    <glyph glyph-name="underscore" unicode="_" horiz-adv-x="1003" 
d="M38 15h929h15v-15v-120v-15h-15h-929h-15v15v120v15h15z" />
    <glyph glyph-name="grave" unicode="`" horiz-adv-x="274" 
d="M186 765l65 -205l6 -20h-20h-94h-9l-4 8l-105 205l-12 22h25h134h11z" />
    <glyph glyph-name="a" unicode="a" horiz-adv-x="603" 
d="M81 494q6 6 32.5 20.5t94 34t141.5 19.5q92 0 154 -55t62 -169v-3v-326v-15h-15h-150h-17v15v31q-68 -59 -178 -59q-78 0 -137.5 42.5t-59.5 120.5q0 101 74.5 153t182.5 52h119q-2 24 -14.5 36.5t-52.5 12.5q-18 0 -37 -2.5t-34.5 -6t-29.5 -8t-24.5 -9t-18.5 -8
t-13 -6.5l-4 -2l-16 -9l-8 15l-55 107l-6 11zM383 228h-111q-81 0 -81 -55q0 -47 75 -47q49 0 83 35.5t34 66.5z" />
    <glyph glyph-name="b" unicode="b" horiz-adv-x="695" 
d="M38 755h15h149h17v-15v-215q66 43 157 43q136 0 216.5 -81t80.5 -209q0 -129 -81 -210t-216 -81q-92 0 -157 43v-15v-15h-17h-149h-15v15v725v15zM498 278q0 58 -40 94t-100 36t-99.5 -36t-39.5 -94t39.5 -94.5t99.5 -36.5t100 36.5t40 94.5z" />
    <glyph glyph-name="c" unicode="c" horiz-adv-x="635" 
d="M465 220l13 -7l127 -63l14 -7l-8 -14q-40 -66 -111 -104t-160 -38q-139 0 -228.5 82t-89.5 209t90 208.5t228 81.5q89 0 159.5 -37t110.5 -103l8 -14l-14 -7l-126 -65l-13 -7l-8 12q-42 61 -117 61q-61 0 -101.5 -36t-40.5 -94t41 -94.5t101 -36.5q75 0 117 61z" />
    <glyph glyph-name="d" unicode="d" horiz-adv-x="695" 
d="M477 755h17h149h15v-15v-725v-15h-15h-149h-17v15v15q-65 -43 -156 -43q-136 0 -217.5 81.5t-81.5 209.5t81.5 209t217.5 81q91 0 156 -43v215v15zM477 278q0 58 -39.5 94t-99.5 36t-100 -36t-40 -94t40 -94t100 -36t99.5 36t39.5 94z" />
    <glyph glyph-name="e" unicode="e" horiz-adv-x="649" 
d="M22 278q0 127 90 208.5t229 81.5q124 0 205.5 -74.5t81.5 -212.5q0 -29 -2 -45l-2 -13h-13h-403q14 -35 49 -55t82 -20q76 0 117 60l8 12l13 -7l128 -63l14 -7l-8 -14q-40 -66 -111.5 -104t-160.5 -38q-138 0 -227.5 82t-89.5 209zM445 365q-17 43 -106 43
q-74 0 -114 -43h220z" />
    <glyph glyph-name="f" unicode="f" horiz-adv-x="531" 
d="M95 556q3 53 12.5 91.5t32.5 75t68 56t111 19.5q51 0 104.5 -23.5t74 -39.5t29.5 -25l8 -7l-6 -11l-59 -101l-9 -15l-14 11q-67 51 -115 51q-29 0 -40 -20.5t-12 -61.5h153h15v-15v-134v-15h-15h-152v-377v-15h-17h-156h-15v15v377h-70h-15v15v134v15h15h72z" />
    <glyph glyph-name="g" unicode="g" horiz-adv-x="633" 
d="M640 569v-15v-114v-15h-15h-14q-47 0 -49 -10q3 -15 3 -44q0 -91 -68 -139t-186 -48q-55 0 -90 8q-2 -4 -2 -10q0 -7 59 -7h33q63 0 115.5 -9.5t100.5 -31t75.5 -64t27.5 -101.5q0 -201 -319 -201t-319 201q0 82 91 125q-20 29 -20 65q0 54 53 83q-59 51 -59 136
q0 92 67.5 141t186.5 49q113 0 179 -44q50 45 135 45h15zM382 376q0 50 -71 50t-71 -50t71 -50t71 50zM450 -31q0 20 -14.5 30t-36 13t-60.5 3h-2h-26h-4q-35 0 -56 -1t-41.5 -5.5t-30 -14t-9.5 -25.5q0 -33 36.5 -44.5t104.5 -11.5q67 0 103 11.5t36 44.5z" />
    <glyph glyph-name="h" unicode="h" 
d="M38 755h15h150h16v-15v-237q80 65 183 65q88 0 151.5 -57t63.5 -151v-2v-343v-15h-15h-150h-16v15v281q0 50 -19 79t-70 29q-96 0 -128 -60v-329v-15h-16h-150h-15v15v725v15z" />
    <glyph glyph-name="i" unicode="i" horiz-adv-x="261" 
d="M38 667q0 42 26.5 67.5t66.5 25.5t66.5 -25.5t26.5 -67.5t-26.5 -67.5t-66.5 -25.5t-66.5 25.5t-26.5 67.5zM43 556h15h146h15v-15v-526v-15h-15h-146h-15v15v526v15z" />
    <glyph glyph-name="j" unicode="j" horiz-adv-x="337" 
d="M101 667q0 42 32 68t76 26q39 0 66 -26t27 -68t-26.5 -67.5t-66.5 -25.5q-44 0 -76 25.5t-32 67.5zM113 556h18h150h15v-15v-477q0 -51 -5.5 -91t-21 -79t-41 -65.5t-69 -42.5t-101.5 -16q-48 0 -89 8.5t-54.5 14.5t-19.5 10l-7 4l1 9l11 130l2 22l19 -9q62 -29 113 -29
q46 0 62.5 37.5t16.5 100.5v4v469v15z" />
    <glyph glyph-name="k" unicode="k" horiz-adv-x="633" 
d="M38 755h15h150h16v-15v-414l191 224l5 6h8h179h32l-20 -23l-214 -231l227 -279l18 -23h-30h-168h-9l-5 6l-144 190l-70 -76v-105v-15h-16h-150h-15v15v106v619v15z" />
    <glyph glyph-name="l" unicode="l" horiz-adv-x="250" 
d="M38 755h15h146h15v-15v-725v-15h-15h-146h-15v15v725v15z" />
    <glyph glyph-name="m" unicode="m" horiz-adv-x="951" 
d="M217 520q57 48 134 48q103 0 168 -77q36 37 85.5 57t98.5 20q85 0 148 -57.5t63 -150.5v-2v-343v-15h-15h-149h-16v15v281q0 50 -18 79t-67 29q-61 0 -81 -44v-9v-336v-15h-15h-154h-15v15v281q0 50 -18 79t-67 29q-62 0 -82 -47v-342v-15h-16h-148h-15v15v526v15h15h148
h16v-15v-21z" />
    <glyph glyph-name="n" unicode="n" 
d="M219 503q80 65 181 65q88 0 152.5 -57t64.5 -151v-2v-343v-15h-15h-150h-16v15v281q0 50 -19 79t-70 29q-96 0 -128 -60v-329v-15h-16h-150h-15v15v526v15h15h150h16v-15v-38z" />
    <glyph glyph-name="o" unicode="o" horiz-adv-x="675" 
d="M22 278q0 127 89 208.5t227 81.5t227 -81.5t89 -208.5t-89 -209t-227 -82t-227 82t-89 209zM478 278q0 58 -40 94t-100 36t-100.5 -36t-40.5 -94t40.5 -94.5t100.5 -36.5t100 36.5t40 94.5z" />
    <glyph glyph-name="p" unicode="p" horiz-adv-x="695" 
d="M219 525q66 43 156 43q136 0 217.5 -81t81.5 -209t-81.5 -209.5t-217.5 -81.5q-91 0 -156 43v-215v-15h-17h-149h-15v15v726v15h15h149h17v-15v-16zM498 278q0 58 -40 94t-100 36t-99.5 -36t-39.5 -94t39.5 -94t99.5 -36t100 36t40 94z" />
    <glyph glyph-name="q" unicode="q" horiz-adv-x="695" 
d="M22 278q0 128 81.5 209t217.5 81q91 0 156 -43v16v15h17h149h15v-15v-710v-15h-15h-149h-17v15v199q-65 -43 -156 -43q-136 0 -217.5 81.5t-81.5 209.5zM477 278q0 58 -39.5 94t-99.5 36t-100 -36t-40 -94t40 -94t100 -36t99.5 36t39.5 94z" />
    <glyph glyph-name="r" unicode="r" horiz-adv-x="428" 
d="M424 568v-15v-145v-15h-15q-91 0 -136 -42.5t-45 -98.5v-237v-15h-18h-157h-15v15v526v15h15h157h18v-15v-40q88 67 181 67h15z" />
    <glyph glyph-name="s" unicode="s" horiz-adv-x="555" 
d="M221 385q0 -9 32.5 -17.5t79 -20.5t93 -31.5t79 -58t32.5 -91.5q0 -89 -67 -134t-188 -45q-150 0 -250 67l-10 7l6 12l60 112l8 15l14 -10q8 -5 23 -12.5t60 -20.5t89 -13q36 0 54 5t21 10.5t3 14.5v1q0 13 -33 24t-80 23t-94 29.5t-80 53t-33 85.5q0 86 71 132t174 46
q135 0 225 -69l1 -1l8 -7l-5 -11l-57 -108l-9 -16l-14 11q-7 5 -19.5 12t-51.5 19t-78 12q-29 0 -43.5 -3.5t-17.5 -8t-3 -13.5z" />
    <glyph glyph-name="t" unicode="t" horiz-adv-x="491" 
d="M95 707h15h159h17v-15v-136h139h15v-15v-134v-15h-15h-139v-111v-4v-46q0 -43 10.5 -63.5t42.5 -20.5q21 0 40.5 6.5t28.5 12.5l9 7l15 14l9 -19l46 -106l3 -9l-6 -7q-59 -59 -158 -59q-52 0 -92 11t-64.5 33.5t-40 47t-23 60.5t-9.5 64.5t-2 68.5v120h-76h-15v15v134v15
h15h76v136v15z" />
    <glyph glyph-name="u" unicode="u" 
d="M38 556h15h150h16v-15v-282q0 -50 19 -79t70 -29q46 0 79.5 16.5t48.5 44.5v329v15h16h150h15v-15v-526v-15h-15h-150h-16v15v37q-80 -65 -183 -65q-88 0 -151.5 56.5t-63.5 150.5v4v343v15z" />
    <glyph glyph-name="v" unicode="v" horiz-adv-x="594" 
d="M8 556h21h150h12l4 -10l109 -297l108 297l4 10h11h151h21l-7 -19l-194 -527l-4 -10h-11h-160h-12l-4 10l-192 527z" />
    <glyph glyph-name="w" unicode="w" horiz-adv-x="858" 
d="M8 556h21h148h12l3 -10l96 -274l63 272l3 12h12h137h13l3 -12l63 -272l97 274l3 10h11h148h21l-7 -19l-190 -527l-3 -10h-12h-153h-13l-3 12l-46 199l-47 -199l-3 -12h-12h-154h-11l-4 10l-189 527z" />
    <glyph glyph-name="x" unicode="x" horiz-adv-x="603" 
d="M8 556h28h155h9l5 -7l110 -151l110 151l5 7h9h155h28l-15 -22l-187 -256l187 -256l15 -22h-28h-155h-9l-5 7l-110 151l-110 -151l-5 -7h-9h-155h-28l16 22l187 256l-187 256z" />
    <glyph glyph-name="y" unicode="y" 
d="M38 556h15h150h16v-15v-265q0 -54 19 -85t70 -31q52 0 87 21t46 57v303v15h17h144h15v-15v-477q0 -126 -80 -210t-218 -84q-22 0 -46 1.5t-45 4.5t-40.5 6.5t-35.5 6.5t-28 6t-18 5l-7 1l-12 3l1 12l12 130l2 18l17 -4q120 -30 179 -30q71 0 107 32.5t36 105.5v4v17
q-83 -67 -188 -67q-88 0 -151.5 57t-63.5 151v2v309v15z" />
    <glyph glyph-name="z" unicode="z" horiz-adv-x="639" 
d="M52 556h15h505h15v-15v-86v-5l-4 -4l-282 -282h286h15v-15v-134v-15h-15h-534h-15v15v86v5l4 4l277 282h-252h-15v15v134v15z" />
    <glyph glyph-name="braceleft" unicode="{" horiz-adv-x="431" 
d="M409 760v-104v-15h-15q-45 0 -59 -24t-14 -81q0 -13 1 -44.5t1 -49.5q0 -142 -74 -200q45 -35 59.5 -84.5t14.5 -114.5q0 -18 -1 -49.5t-1 -44.5q0 -57 14 -81.5t59 -24.5h15v-15v-104v-15h-15q-78 0 -131 20.5t-75.5 53.5t-34.5 75.5t-10.5 86.5t-1 86.5t-7.5 75.5
t-29 53.5t-67 20.5h-15v15v7v78v7v15h15q43 0 67 20.5t29 53.5t7.5 75.5t1 86.5t10.5 86.5t34.5 75.5t75.5 53.5t131 20.5h15v-15z" />
    <glyph glyph-name="bar" unicode="|" horiz-adv-x="220" 
d="M38 775h146h15v-15v-1042v-15h-15h-146h-15v15v1042v15h15z" />
    <glyph glyph-name="braceright" unicode="}" horiz-adv-x="431" 
d="M38 775q78 0 131 -20.5t75.5 -53.5t34.5 -75.5t10.5 -86.5t1 -86.5t7.5 -75.5t29 -53.5t67 -20.5h15v-15v-7v-78v-7v-15h-15q-43 0 -67 -20.5t-29 -53.5t-7.5 -75.5t-1 -86.5t-10.5 -86.5t-34.5 -75.5t-75.5 -53.5t-131 -20.5h-15v15v104v15h15q44 0 58 24.5t14 81.5
q0 14 -0.5 45.5t-0.5 48.5q0 141 74 199q-45 35 -59.5 85t-14.5 115q0 17 0.5 48.5t0.5 45.5q0 57 -13.5 81t-58.5 24h-15v15v104v15h15z" />
    <glyph glyph-name="asciitilde" unicode="~" horiz-adv-x="706" 
d="M28 369q76 64 172 64q52 0 153.5 -23t149.5 -23q90 0 158 55l24 19v-31v-150v-7l-6 -5q-78 -63 -175 -63q-54 0 -155 24t-147 24q-86 0 -154 -57l-25 -20v32v150v7z" />
    <glyph glyph-name="exclamdown" unicode="&#xa1;" horiz-adv-x="250" 
d="M125 733q40 0 67 -25t27 -68q0 -42 -27 -68t-67 -26q-39 0 -66 26t-27 68t26.5 67.5t66.5 25.5zM52 528h147h15v-15l15 -513v-15h-15h-176h-15v15l14 513v15h15z" />
    <glyph glyph-name="cent" unicode="&#xa2;" horiz-adv-x="605" 
d="M380 785h146h23l-9 -21l-49 -117q58 -37 89 -91l8 -14l-14 -7l-124 -65l-12 -7l-8 12q-1 1 -2.5 4.5t-2.5 4.5l-99 -239q67 1 104 61l7 12l13 -7l125 -63l14 -7l-8 -14q-40 -66 -108 -104t-150 -38q-24 0 -60 6l-35 -87l-4 -9h-10h-146h-22l8 21l61 149q-92 89 -92 226
q0 133 86 218.5t214 85.5h10l33 81l4 9h10zM261 519q-68 -38 -68 -128q0 -17 3 -31z" />
    <glyph glyph-name="sterling" unicode="&#xa3;" horiz-adv-x="624" 
d="M367 812q57 0 114 -23.5t77.5 -39t29.5 -24.5l8 -7l-6 -11l-59 -101l-10 -16l-13 13q-6 6 -16.5 14t-44.5 22t-68 14q-32 0 -52.5 -12.5t-29 -37.5t-10.5 -45t-2 -51v-4v-49h203h15v-15v-135v-15h-15h-203v-11q0 -70 -40 -128h342h15v-15v-148v-15h-15h-537h-14l-1 13
l-12 115l-2 16l16 1q27 1 45 29t25 62t7 70v4v7h-62h-15v15v135v15h15h62v53q0 61 11.5 111t38 96t78.5 72t125 26z" />
    <glyph glyph-name="yen" unicode="&#xa5;" horiz-adv-x="793" 
d="M38 809h159h9l4 -8l187 -328l187 328l4 8h9h159h26l-13 -23l-267 -461h112h15v-15v-92v-15h-15h-125v-4h125h15v-15v-92v-15h-15h-125v-77v-15h-15h-154h-15v15v77h-126h-15v15v92v15h15h126v4h-126h-15v15v92v15h15h113l-267 461l-13 23h26z" />
    <glyph glyph-name="section" unicode="&#xa7;" horiz-adv-x="491" 
d="M253 733q122 0 214 -92l7 -8l-7 -10l-68 -91l-11 -15l-12 14q-59 59 -123 59q-39 0 -53.5 -12t-14.5 -42q0 -15 31 -23.5t74.5 -17.5t87.5 -26t75 -58t31 -103q0 -74 -56 -123q51 -44 51 -121q0 -86 -68 -138t-169 -52q-140 0 -232 92l-7 8l6 9l60 94l11 17l13 -15
q60 -60 149 -60q45 0 61.5 14.5t16.5 40.5q0 18 -31 29t-75 20.5t-87.5 25.5t-74.5 54.5t-31 97.5q0 81 54 130q-50 42 -50 113q0 92 67 140.5t161 48.5zM225 373q-22 -9 -34 -31.5t-12 -49.5q0 -15 22.5 -24.5t78.5 -22.5q45 14 45 72q0 20 -24 32t-76 24z" />
    <glyph glyph-name="copyright" unicode="&#xa9;" horiz-adv-x="820" 
d="M410 745q161 0 274.5 -113.5t113.5 -273.5t-114 -274t-274 -114t-273.5 113.5t-113.5 274.5q0 160 113.5 273.5t273.5 113.5zM410 619q-109 0 -185 -76t-76 -185t76 -185.5t185 -76.5t185.5 76.5t76.5 185.5t-76.5 185t-185.5 76zM410 556q101 0 156 -76l9 -12l-12 -9
l-60 -48l-12 -9l-9 12q-26 34 -72 34q-38 0 -63 -25t-25 -65t25 -65t63 -25q47 0 72 33l9 12l12 -9l60 -48l12 -9l-9 -12q-55 -75 -156 -75q-83 0 -139 56t-56 142t56 142t139 56z" />
    <glyph glyph-name="registered" unicode="&#xae;" horiz-adv-x="539" 
d="M264 559v-25q22 0 26.5 2t4.5 9v2v2q0 7 -4 8.5t-27 1.5zM200 633h49h13q51 0 79 -22.5t28 -63.5q0 -47 -36 -70l38 -76l8 -16q48 48 48 113t-46 111t-111 46q-44 0 -80 -22h10zM270 745q102 0 174.5 -72.5t72.5 -174.5t-72.5 -174.5t-174.5 -72.5t-174.5 72.5
t-72.5 174.5t72.5 174.5t174.5 72.5zM372 379h-14h-50h-10l-4 9l-30 67v-61v-15h-15h-49h-15v15v224v12q-33 -21 -52.5 -56t-19.5 -76q0 -65 46 -111t111 -46q59 0 102 38z" />
    <glyph glyph-name="plusminus" unicode="&#xb1;" horiz-adv-x="667" 
d="M262 795h144h15v-15v-209h210h15v-15v-145v-15h-15h-210v-209v-15h-15h-144h-15v15v209h-209h-15v15v145v15h15h209v209v15h15zM38 139h593h15v-15v-144v-15h-15h-593h-15v15v144v15h15z" />
    <glyph glyph-name="mu" unicode="&#xb5;" horiz-adv-x="594" 
d="M38 571h146h15v-15v-304q0 -54 17 -84.5t64 -30.5q86 0 116 64v355v15h15h146h15v-15v-556v-15h-15h-146h-15v15v37q-73 -65 -166 -65q-13 0 -31 2v-166v-15h-15h-146h-15v15v748v15h15z" />
    <glyph glyph-name="paragraph" unicode="&#xb6;" horiz-adv-x="746" 
d="M311 720h155h15v-15v-816v-15h-15h-155h-15v15v352q-273 6 -273 240q0 239 288 239zM554 720h155h15v-15v-816v-15h-15h-155h-15v15v816v15h15z" />
    <glyph glyph-name="questiondown" unicode="&#xbf;" horiz-adv-x="555" 
d="M328 733q42 0 70.5 -26.5t28.5 -72.5q0 -45 -29 -72.5t-70 -27.5t-70 27.5t-29 72.5q0 46 28.5 72.5t70.5 26.5zM253 528h151h15v-15q0 -65 -21 -115t-51.5 -78t-61 -49t-51.5 -40.5t-21 -40.5q0 -28 13 -37.5t61 -9.5q36 0 69.5 18.5t44.5 30t20 23.5l1 1l11 18l13 -17
l84 -113l6 -9l-6 -9l-1 -1q-9 -12 -21.5 -24t-43 -35.5t-77 -38.5t-100.5 -15q-115 0 -189.5 53.5t-74.5 166.5q0 45 16 81.5t40 58t51.5 43t51.5 38t40 42.5t16 58v15h15z" />
    <glyph glyph-name="Agrave" unicode="&#xc0;" horiz-adv-x="793" 
d="M479 279l-75 195l-76 -195h151zM222 937h26h141h12l3 -10l70 -205l6 -17h19h11l4 -10l278 -675l8 -20h-22h-172h-11l-4 10l-46 117h-282l-46 -117l-4 -10h-11h-172h-22l8 20l278 675l4 10h11h40l-3 5l-112 205z" />
    <glyph glyph-name="Aacute" unicode="&#xc1;" horiz-adv-x="793" 
d="M479 279l-75 195l-76 -195h151zM419 937h11h142h26l-12 -22l-112 -205l-3 -5h28h11l4 -10l278 -675l8 -20h-22h-172h-11l-4 10l-46 117h-282l-46 -117l-4 -10h-11h-172h-22l8 20l278 675l4 10h11h31l5 17l70 205z" />
    <glyph glyph-name="Acircumflex" unicode="&#xc2;" horiz-adv-x="793" 
d="M479 279l-75 195l-76 -195h151zM347 935h9h94h10l4 -8l122 -208l13 -22h-27h-59l1 -2l278 -675l8 -20h-22h-172h-11l-4 10l-46 117h-282l-46 -117l-4 -10h-11h-172h-22l8 20l278 675v2h-59h-27l13 22l121 208zM404 809l-61 -104h121z" />
    <glyph glyph-name="Atilde" unicode="&#xc3;" horiz-adv-x="793" 
d="M528 892h15h55h16v-15q0 -70 -37 -116.5t-96 -46.5q-36 0 -62.5 13t-44.5 26t-33 13q-26 0 -43 -14t-17 -41v-15h-16h-57h-16v15q0 72 45.5 124.5t103.5 52.5q36 0 65.5 -13t48 -26.5t28.5 -13.5q25 0 35 8.5t10 33.5v15zM298 705h11h190h11l4 -10l278 -675l8 -20h-22
h-172h-11l-4 10l-46 117h-282l-46 -117l-4 -10h-11h-172h-22l8 20l278 675zM479 279l-75 195l-76 -195h151z" />
    <glyph glyph-name="Adieresis" unicode="&#xc4;" horiz-adv-x="793" 
d="M479 279l-75 195l-76 -195h151zM423 785q0 37 24.5 59t60.5 22t61 -22t25 -59t-24 -58.5t-60 -22.5l4 -9l278 -675l8 -20h-22h-172h-11l-4 10l-46 117h-282l-46 -117l-4 -10h-11h-172h-22l8 20l278 675l3 9q-36 1 -60 22.5t-24 58.5t25 59t61 22t61 -22t25 -59
q0 -33 -20 -54t-51 -26h180q-31 5 -51 26t-20 54z" />
    <glyph glyph-name="Aring" unicode="&#xc5;" horiz-adv-x="793" 
d="M479 279l-75 195l-76 -195h151zM433 790q0 12 -8 20t-21 8t-21.5 -8t-8.5 -20t8.5 -20t21.5 -8t21 8t8 20zM272 790q0 52 38.5 88t93.5 36t93 -36t38 -88q0 -44 -36 -84v-1h11l4 -10l278 -675l8 -20h-22h-172h-11l-4 10l-46 117h-282l-46 -117l-4 -10h-11h-172h-22l8 20
l278 675l4 10h11q-37 72 -37 85z" />
    <glyph glyph-name="AE" unicode="&#xc6;" horiz-adv-x="951" 
d="M296 705h11h94h161h344h15v-15v-137v-15h-15h-328v-101h295h15v-15v-138v-15h-15h-295v-102h328h15v-15v-137v-15h-15h-344h-161h-16v15v97h-124l-45 -102l-4 -10h-11h-171h-22l8 20l276 675zM385 279v152l-59 -152h59z" />
    <glyph glyph-name="Ccedilla" unicode="&#xc7;" horiz-adv-x="751" 
d="M399 -76q-18 0 -41 -7q1 -9 9.5 -16t21.5 -7q34 0 34 17q0 8 -4.5 10.5t-19.5 2.5zM274 -67h54v30v33q-138 26 -222 122t-84 234q0 160 111.5 263t280.5 103q99 0 181 -38t132 -107l9 -12l-12 -9l-123 -96l-12 -9l-10 12q-59 73 -165 73q-88 0 -146 -50.5t-58 -129.5
t58 -129.5t146 -50.5q103 0 165 75l10 12l12 -9l123 -97l12 -9l-9 -12q-92 -123 -263 -142q64 -18 64 -79q0 -54 -40.5 -82.5t-98.5 -28.5q-64 0 -97.5 31t-33.5 87v15h16z" />
    <glyph glyph-name="Egrave" unicode="&#xc8;" horiz-adv-x="622" 
d="M136 986h25h149h12l4 -10l72 -206l6 -20h-22h-103h-10l-5 8l-116 206zM38 705h15h160h358h15v-15v-137v-15h-15h-341v-101h308h15v-15v-138v-15h-15h-308v-102h341h15v-15v-137v-15h-15h-358h-160h-15v15v675v15z" />
    <glyph glyph-name="Eacute" unicode="&#xc9;" horiz-adv-x="622" 
d="M365 986h12h144h25l-12 -22l-111 -206l-5 -8h-10h-104h-23l7 20l74 206zM38 705h15h160h358h15v-15v-137v-15h-15h-341v-101h308h15v-15v-138v-15h-15h-308v-102h341h15v-15v-137v-15h-15h-358h-160h-15v15v675v15z" />
    <glyph glyph-name="Ecircumflex" unicode="&#xca;" horiz-adv-x="622" 
d="M277 983h10h98h10l5 -8l122 -207l13 -22h-26h-95h-10l-5 8l-63 103l-65 -103l-5 -8h-9h-98h-25l12 22l126 207zM38 705h15h160h358h15v-15v-137v-15h-15h-341v-101h308h15v-15v-138v-15h-15h-308v-102h341h15v-15v-137v-15h-15h-358h-160h-15v15v675v15z" />
    <glyph glyph-name="Edieresis" unicode="&#xcb;" horiz-adv-x="622" 
d="M146 812q0 37 25 59t63 22t64 -22t26 -59t-26 -59t-64 -22t-63 22t-25 59zM364 812q0 37 26 59t64 22q35 0 58.5 -22t23.5 -59t-23.5 -59t-58.5 -22q-38 0 -64 22t-26 59zM38 705h15h160h358h15v-15v-137v-15h-15h-341v-101h308h15v-15v-138v-15h-15h-308v-102h341h15
v-15v-137v-15h-15h-358h-160h-15v15v675v15z" />
    <glyph glyph-name="Igrave" unicode="&#xcc;" horiz-adv-x="260" 
d="M-37 967h25h135h11l3 -10l65 -205l6 -20h-20h-94h-9l-5 8l-106 205zM48 705h15h155h15v-15v-675v-15h-15h-155h-15v15v675v15z" />
    <glyph glyph-name="Iacute" unicode="&#xcd;" horiz-adv-x="271" 
d="M138 967h11h134h25l-12 -22l-107 -205l-4 -8h-9h-93h-21l7 20l66 205zM38 705h15h155h15v-15v-675v-15h-15h-155h-15v15v675v15z" />
    <glyph glyph-name="Icircumflex" unicode="&#xce;" horiz-adv-x="353" 
d="M118 970h11h110h11l5 -8l117 -208l12 -22h-26h-89h-9l-5 8l-72 104l-70 -104l-5 -8h-10h-89h-25l12 22l117 208zM76 705h15h184h15v-15v-675v-15h-15h-184h-15v15v675v15z" />
    <glyph glyph-name="Idieresis" unicode="&#xcf;" horiz-adv-x="364" 
d="M-16 811q0 37 23.5 59t57.5 22q36 0 64 -22.5t28 -58.5t-28 -58.5t-64 -22.5q-34 0 -57.5 22t-23.5 59zM200 811q0 36 28 58.5t64 22.5q34 0 57.5 -22t23.5 -59t-23.5 -59t-57.5 -22q-36 0 -64 22.5t-28 58.5zM70 705h15h186h15v-15v-675v-15h-15h-186h-15v15v675v15z
" />
    <glyph glyph-name="Eth" unicode="&#xd0;" horiz-adv-x="710" 
d="M32 705h15h251q170 0 280 -97t110 -256q0 -158 -110 -255t-280 -97h-251h-15v15v254h-69h-15v15v108v15h15h69v283v15zM298 538h-71v-131h81h16v-15v-108v-15h-16h-81v-102h71q87 0 145.5 52.5t58.5 132.5t-58.5 133t-145.5 53z" />
    <glyph glyph-name="Ntilde" unicode="&#xd1;" horiz-adv-x="776" 
d="M513 940h16h57h16v-15q0 -70 -38 -116.5t-98 -46.5q-36 0 -62.5 13t-44.5 26t-33 13q-27 0 -44.5 -14t-17.5 -41v-15h-16h-57h-16v15q0 72 46 124.5t105 52.5q37 0 66.5 -13t48 -26.5t28.5 -13.5q25 0 34.5 8.5t9.5 33.5v15zM38 705h15h179h8l5 -7l304 -433v425v15h16
h160h15v-15v-675v-15h-15h-179h-8l-5 7l-305 434v-426v-15h-17h-158h-15v15v675v15z" />
    <glyph glyph-name="Ograve" unicode="&#xd2;" horiz-adv-x="823" 
d="M225 986h26h142h12l3 -10l70 -206l7 -20h-22h-100h-9l-5 8l-112 206zM22 352q0 160 111 263t279 103q169 0 279 -103t110 -263t-110.5 -262.5t-278.5 -102.5t-279 102.5t-111 262.5zM615 352q0 79 -58 129.5t-145 50.5t-144.5 -50.5t-57.5 -129.5t57.5 -129.5
t144.5 -50.5t145 50.5t58 129.5z" />
    <glyph glyph-name="Oacute" unicode="&#xd3;" horiz-adv-x="823" 
d="M419 986h12h142h26l-12 -22l-112 -206l-5 -8h-9h-100h-22l7 20l70 206zM22 352q0 160 111 263t279 103q169 0 279 -103t110 -263t-110.5 -262.5t-278.5 -102.5t-279 102.5t-111 262.5zM615 352q0 79 -58 129.5t-145 50.5t-144.5 -50.5t-57.5 -129.5t57.5 -129.5
t144.5 -50.5t145 50.5t58 129.5z" />
    <glyph glyph-name="Ocircumflex" unicode="&#xd4;" horiz-adv-x="823" 
d="M356 983h9h94h9l4 -8l123 -207l14 -22h-28h-95h-9l-5 8l-60 103l-61 -103l-5 -8h-9h-94h-28l14 22l123 207zM22 352q0 160 111 263t279 103q169 0 279 -103t110 -263t-110.5 -262.5t-278.5 -102.5t-279 102.5t-111 262.5zM615 352q0 79 -58 129.5t-145 50.5t-144.5 -50.5
t-57.5 -129.5t57.5 -129.5t144.5 -50.5t145 50.5t58 129.5z" />
    <glyph glyph-name="Otilde" unicode="&#xd5;" horiz-adv-x="823" 
d="M536 940h16h55h16v-15q0 -70 -38 -116.5t-97 -46.5q-36 0 -62 13t-43.5 26t-32.5 13q-26 0 -43.5 -14t-17.5 -41v-15h-16h-57h-16v15q0 72 46 124.5t104 52.5q37 0 66 -13t47 -26.5t28 -13.5q25 0 35 8.5t10 33.5v15zM22 352q0 160 111 263t279 103q169 0 279 -103
t110 -263t-110.5 -262.5t-278.5 -102.5t-279 102.5t-111 262.5zM615 352q0 79 -58 129.5t-145 50.5t-144.5 -50.5t-57.5 -129.5t57.5 -129.5t144.5 -50.5t145 50.5t58 129.5z" />
    <glyph glyph-name="Odieresis" unicode="&#xd6;" horiz-adv-x="823" 
d="M222 805q0 37 24.5 59t61.5 22t61.5 -22t24.5 -59t-24.5 -59t-61.5 -22t-61.5 22t-24.5 59zM431 805q0 37 24.5 59t61.5 22t61.5 -22t24.5 -59t-24.5 -59t-61.5 -22t-61.5 22t-24.5 59zM22 352q0 160 111 263t279 103q169 0 279 -103t110 -263t-110.5 -262.5
t-278.5 -102.5t-279 102.5t-111 262.5zM615 352q0 79 -58 129.5t-145 50.5t-144.5 -50.5t-57.5 -129.5t57.5 -129.5t144.5 -50.5t145 50.5t58 129.5z" />
    <glyph glyph-name="multiply" unicode="&#xd7;" horiz-adv-x="656" 
d="M519 640l102 -102l10 -11l-10 -10l-152 -137l152 -138l10 -10l-10 -10v-1l-102 -102l-11 -11l-12 11l-162 138l-161 -138l-11 -11l-11 11l-102 102l-11 11l11 10l151 138l-151 137l-11 10l11 11l102 102l11 11l11 -11l161 -137l162 137l12 11z" />
    <glyph glyph-name="Oslash" unicode="&#xd8;" horiz-adv-x="823" 
d="M599 817h9h157h25l-12 -22l-95 -166q118 -104 118 -276q0 -160 -110.5 -263t-278.5 -103q-52 0 -110 14l-59 -101l-5 -8h-9h-157h-25l12 22l90 157q-127 104 -127 280q0 160 111 263.5t279 103.5q60 0 119 -16l63 107zM431 532h-19q-87 0 -144.5 -54.5t-57.5 -140.5
q0 -68 38 -119zM615 367q0 63 -34 112l-179 -307h10q87 0 145 54.5t58 140.5z" />
    <glyph glyph-name="Ugrave" unicode="&#xd9;" horiz-adv-x="753" 
d="M192 962h26h143h12l3 -10l71 -204l7 -20h-22h-101h-10l-4 8l-113 204zM38 705h15h159h16v-15v-334q0 -86 38.5 -135t109.5 -49t110.5 49t39.5 135v334v15h16h159h15v-15v-339q0 -171 -94 -267.5t-246 -96.5t-245 96.5t-93 267.5v339v15z" />
    <glyph glyph-name="Uacute" unicode="&#xda;" horiz-adv-x="753" 
d="M377 962h12h145h26l-12 -22l-114 -204l-4 -8h-10h-101h-22l7 20l69 204zM38 705h15h159h16v-15v-334q0 -86 38.5 -135t109.5 -49t110.5 49t39.5 135v334v15h16h159h15v-15v-339q0 -171 -94 -267.5t-246 -96.5t-245 96.5t-93 267.5v339v15z" />
    <glyph glyph-name="Ucircumflex" unicode="&#xdb;" horiz-adv-x="753" 
d="M319 960h10h96h10l4 -8l123 -208l13 -22h-27h-95h-9l-5 8l-63 104l-61 -104l-5 -8h-9h-96h-27l13 22l124 208zM38 705h15h159h16v-15v-334q0 -86 38.5 -135t109.5 -49t110.5 49t39.5 135v334v15h16h159h15v-15v-339q0 -171 -94 -267.5t-246 -96.5t-245 96.5t-93 267.5
v339v15z" />
    <glyph glyph-name="Udieresis" unicode="&#xdc;" horiz-adv-x="753" 
d="M184 810q0 37 25 59t62 22t62 -22t25 -59t-25 -59t-62 -22t-62 22t-25 59zM396 810q0 37 25 59t62 22t62 -22t25 -59t-25 -59t-62 -22t-62 22t-25 59zM38 705h15h159h16v-15v-334q0 -86 38.5 -135t109.5 -49t110.5 49t39.5 135v334v15h16h159h15v-15v-339
q0 -171 -94 -267.5t-246 -96.5t-245 96.5t-93 267.5v339v15z" />
    <glyph glyph-name="Yacute" unicode="&#xdd;" horiz-adv-x="802" 
d="M424 947h11h142h26l-12 -22l-112 -205l-4 -8h-10h-99h-22l7 20l69 205zM8 705h26h178h9l4 -8l187 -311l188 311l5 8h9h177h27l-14 -22l-295 -461v-207v-15h-15h-163h-16v15v207l-294 461z" />
    <glyph glyph-name="Thorn" unicode="&#xde;" horiz-adv-x="605" 
d="M38 705h15h160h17v-15v-62h29q165 0 244.5 -61.5t79.5 -172.5t-79 -172t-245 -61h-29v-146v-15h-17h-160h-15v15v675v15zM259 473h-29v-144h29q89 0 119 12.5t30 59.5t-30 59.5t-119 12.5z" />
    <glyph glyph-name="germandbls" unicode="&#xdf;" horiz-adv-x="772" 
d="M38 463q0 113 27 197.5t75 133.5t109 72.5t135 23.5q66 0 117 -19t80.5 -46.5t48.5 -63.5t25.5 -66.5t6.5 -59.5q0 -54 -24.5 -90t-59 -53t-69 -30t-59 -32t-24.5 -48q0 -13 33.5 -21t81 -16t95 -24t81 -55t33.5 -98q0 -81 -76 -131t-183 -50q-45 0 -88.5 9.5t-71.5 21.5
t-53 27t-33.5 22t-12.5 11l-9 9l9 11l88 97l12 13l12 -13q6 -6 16 -13.5t48 -20.5t83 -13q85 0 85 35q0 17 -34.5 25.5t-83.5 15.5t-98 20.5t-83.5 49.5t-34.5 92q0 59 25.5 96.5t62 53.5t72.5 27t61.5 27.5t25.5 44.5q0 56 -25.5 75.5t-80.5 19.5q-86 0 -129 -58.5
t-43 -211.5v-5v-571v-15h-16h-142h-15v15v579z" />
    <glyph glyph-name="agrave" unicode="&#xe0;" horiz-adv-x="603" 
d="M168 824h27h148h12l4 -10l73 -205l7 -20h-23h-104h-10l-4 8l-117 205zM81 494q6 6 32.5 20.5t94 34t141.5 19.5q92 0 154.5 -55t62.5 -169v-3v-326v-15h-15h-151h-17v15v31q-68 -59 -178 -59q-78 0 -137.5 42.5t-59.5 120.5q0 101 74.5 153t182.5 52h119
q-2 24 -14.5 36.5t-52.5 12.5q-18 0 -37 -2.5t-34.5 -6t-29.5 -8t-24.5 -9t-18.5 -8t-13 -6.5l-4 -2l-16 -9l-8 15l-55 107l-6 11zM383 228h-111q-82 0 -82 -55q0 -47 76 -47q49 0 83 35.5t34 66.5z" />
    <glyph glyph-name="aacute" unicode="&#xe1;" horiz-adv-x="603" 
d="M358 824h12h141h25l-12 -22l-109 -205l-4 -8h-10h-104h-23l7 20l73 205zM81 494q6 6 32.5 20.5t94 34t141.5 19.5q92 0 154.5 -55t62.5 -169v-3v-326v-15h-15h-151h-17v15v31q-68 -59 -178 -59q-78 0 -137.5 42.5t-59.5 120.5q0 101 74.5 153t182.5 52h119
q-2 24 -14.5 36.5t-52.5 12.5q-18 0 -37 -2.5t-34.5 -6t-29.5 -8t-24.5 -9t-18.5 -8t-13 -6.5l-4 -2l-16 -9l-8 15l-55 107l-6 11zM383 228h-111q-82 0 -82 -55q0 -47 76 -47q49 0 83 35.5t34 66.5z" />
    <glyph glyph-name="acircumflex" unicode="&#xe2;" horiz-adv-x="603" 
d="M281 822h9h100h9l5 -8l119 -208l12 -22h-25h-92h-9l-5 8l-64 103l-64 -103l-5 -8h-9h-98h-28l14 22l126 208zM81 494q6 6 32.5 20.5t94 34t141.5 19.5q92 0 154.5 -55t62.5 -169v-3v-326v-15h-15h-151h-17v15v31q-68 -59 -178 -59q-78 0 -137.5 42.5t-59.5 120.5
q0 101 74.5 153t182.5 52h119q-2 24 -14.5 36.5t-52.5 12.5q-18 0 -37 -2.5t-34.5 -6t-29.5 -8t-24.5 -9t-18.5 -8t-13 -6.5l-4 -2l-16 -9l-8 15l-55 107l-6 11zM383 228h-111q-82 0 -82 -55q0 -47 76 -47q49 0 83 35.5t34 66.5z" />
    <glyph glyph-name="atilde" unicode="&#xe3;" horiz-adv-x="603" 
d="M450 778h15h52h15v-15q0 -71 -36 -117t-95 -46q-37 0 -64.5 13t-46 26t-33.5 13q-29 0 -46.5 -14t-17.5 -41v-15h-16h-58h-15v15q0 73 45.5 125t106.5 52q38 0 68.5 -13t49.5 -26.5t29 -13.5q27 0 37 8.5t10 33.5v15zM81 494q6 6 32.5 20.5t94 34t141.5 19.5
q92 0 154.5 -55t62.5 -169v-3v-326v-15h-15h-151h-17v15v31q-68 -59 -178 -59q-78 0 -137.5 42.5t-59.5 120.5q0 101 74.5 153t182.5 52h119q-2 24 -14.5 36.5t-52.5 12.5q-18 0 -37 -2.5t-34.5 -6t-29.5 -8t-24.5 -9t-18.5 -8t-13 -6.5l-4 -2l-16 -9l-8 15l-55 107l-6 11z
M383 228h-111q-82 0 -82 -55q0 -47 76 -47q49 0 83 35.5t34 66.5z" />
    <glyph glyph-name="adieresis" unicode="&#xe4;" horiz-adv-x="603" 
d="M130 671q0 37 26.5 59t63.5 22q38 0 63.5 -22t25.5 -59t-25.5 -59t-63.5 -22q-37 0 -63.5 22t-26.5 59zM348 671q0 37 26 59t63 22q35 0 58.5 -22t23.5 -59t-23.5 -59t-58.5 -22q-37 0 -63 22t-26 59zM81 494q6 6 32.5 20.5t94 34t141.5 19.5q92 0 154.5 -55t62.5 -169
v-3v-326v-15h-15h-151h-17v15v31q-68 -59 -178 -59q-78 0 -137.5 42.5t-59.5 120.5q0 101 74.5 153t182.5 52h119q-2 24 -14.5 36.5t-52.5 12.5q-18 0 -37 -2.5t-34.5 -6t-29.5 -8t-24.5 -9t-18.5 -8t-13 -6.5l-4 -2l-16 -9l-8 15l-55 107l-6 11zM383 228h-111
q-82 0 -82 -55q0 -47 76 -47q49 0 83 35.5t34 66.5z" />
    <glyph glyph-name="aring" unicode="&#xe5;" horiz-adv-x="603" 
d="M383 228h-111q-82 0 -82 -55q0 -47 76 -47q49 0 83 35.5t34 66.5zM372 677q0 11 -9 19t-22 8t-22.5 -8t-9.5 -19q0 -12 9.5 -20.5t22.5 -8.5q12 0 21.5 8.5t9.5 20.5zM203 677q0 51 40.5 87.5t97.5 36.5q56 0 95.5 -36.5t39.5 -87.5q0 -37 -21 -67.5t-56 -45.5
q74 -13 120.5 -67.5t46.5 -152.5v-3v-326v-15h-15h-151h-17v15v31q-68 -59 -178 -59q-78 0 -137.5 42.5t-59.5 120.5q0 101 74.5 153t182.5 52h119q-2 24 -14.5 36.5t-52.5 12.5q-18 0 -37 -2.5t-34.5 -6t-29.5 -8t-24.5 -9t-18.5 -8t-13 -6.5l-4 -2l-16 -9l-8 15l-55 107
l-6 11l10 8l3 2q3 2 8.5 5.5t13.5 8t18 9.5t22.5 10t27.5 10.5t31.5 10t36.5 8.5t40 6q-36 15 -57.5 45.5t-21.5 67.5z" />
    <glyph glyph-name="ae" unicode="&#xe6;" horiz-adv-x="1039" 
d="M81 494q6 6 31 20.5t89.5 34t134.5 19.5q112 0 172 -78q87 78 215 78q119 0 199 -74.5t80 -212.5q0 -29 -2 -45l-2 -13h-13h-390q14 -35 48 -55t78 -20q73 0 111 60l8 12l13 -7l126 -63l14 -7l-8 -14q-40 -66 -109 -104t-155 -38q-92 0 -168 45v-17v-15h-16h-153h-15v15
v31q-64 -59 -168 -59q-76 0 -134.5 42.5t-58.5 120.5q0 100 73 152.5t176 52.5h112q-1 24 -13.5 36.5t-49.5 12.5q-17 0 -34.5 -2.5t-32 -6t-28 -8t-23.5 -9t-18 -8t-12 -6.5l-4 -2l-14 -9l-8 15l-55 107l-6 11zM821 365q-17 58 -100 58q-71 0 -110 -58h210zM369 228h-106
q-77 0 -77 -55q0 -47 72 -47q46 0 78.5 35.5t32.5 66.5z" />
    <glyph glyph-name="ccedilla" unicode="&#xe7;" horiz-adv-x="635" 
d="M292 -75l-14 -4v-3q0 -18 9.5 -25.5t31.5 -7.5q28 0 36 6t8 20q0 20 -30 20zM262 -67h9v6v23v31q-112 20 -180.5 97.5t-68.5 187.5q0 127 90 208.5t228 81.5q89 0 159.5 -37t110.5 -103l8 -14l-14 -7l-126 -65l-13 -7l-8 12q-42 61 -117 61q-61 0 -101 -36t-40 -94
t40.5 -94t100.5 -36q76 0 117 60l8 12l13 -7l127 -63l14 -7l-8 -14q-68 -115 -219 -137q31 -6 50 -26.5t19 -54.5q0 -54 -41.5 -82.5t-100.5 -28.5q-65 0 -99 31t-34 87v15h16h60z" />
    <glyph glyph-name="egrave" unicode="&#xe8;" horiz-adv-x="649" 
d="M155 824h27h146h12l4 -10l72 -205l7 -20h-23h-101h-10l-5 8l-116 205zM22 278q0 127 90 208.5t229 81.5q124 0 205.5 -74.5t81.5 -212.5q0 -29 -2 -45l-2 -13h-13h-403q14 -35 49 -55t82 -20q76 0 117 60l8 12l13 -7l128 -63l14 -7l-8 -14q-40 -66 -111.5 -104
t-160.5 -38q-138 0 -227.5 82t-89.5 209zM445 365q-17 43 -106 43q-74 0 -114 -43h220z" />
    <glyph glyph-name="eacute" unicode="&#xe9;" horiz-adv-x="650" 
d="M356 824h11h147h25l-12 -22l-115 -205l-4 -8h-10h-102h-23l7 20l72 205zM22 278q0 127 90 208.5t229 81.5q124 0 205.5 -74.5t81.5 -212.5q0 -29 -2 -45l-2 -13h-13h-403q14 -35 49 -55t82 -20q76 0 117 60l8 12l13 -7l128 -63l14 -7l-8 -14q-40 -66 -111.5 -104
t-160.5 -38q-138 0 -227.5 82t-89.5 209zM445 365q-17 43 -106 43q-74 0 -114 -43h220z" />
    <glyph glyph-name="ecircumflex" unicode="&#xea;" horiz-adv-x="650" 
d="M284 822h9h97h10l5 -8l123 -208l12 -22h-25h-96h-10l-5 8l-63 103l-63 -103l-4 -8h-10h-96h-27l13 22l125 208zM22 278q0 127 90 208.5t229 81.5q124 0 205.5 -74.5t81.5 -212.5q0 -29 -2 -45l-2 -13h-13h-403q14 -35 49 -55t82 -20q76 0 117 60l8 12l13 -7l128 -63
l14 -7l-8 -14q-40 -66 -111.5 -104t-160.5 -38q-138 0 -227.5 82t-89.5 209zM445 365q-17 43 -106 43q-74 0 -114 -43h220z" />
    <glyph glyph-name="edieresis" unicode="&#xeb;" horiz-adv-x="649" 
d="M149 671q0 38 25.5 59.5t62.5 21.5t62.5 -22t25.5 -59t-25.5 -59t-62.5 -22t-62.5 21.5t-25.5 59.5zM364 671q0 38 25.5 59.5t62.5 21.5t61.5 -22t24.5 -59t-24.5 -59t-61.5 -22t-62.5 21.5t-25.5 59.5zM22 278q0 127 90 208.5t229 81.5q124 0 205.5 -74.5t81.5 -212.5
q0 -29 -2 -45l-2 -13h-13h-403q14 -35 49 -55t82 -20q76 0 117 60l8 12l13 -7l128 -63l14 -7l-8 -14q-40 -66 -111.5 -104t-160.5 -38q-138 0 -227.5 82t-89.5 209zM445 365q-17 43 -106 43q-74 0 -114 -43h220z" />
    <glyph glyph-name="igrave" unicode="&#xec;" horiz-adv-x="246" 
d="M-46 836h25h134h11l3 -10l66 -204l6 -20h-20h-94h-9l-5 8l-106 204zM43 556h15h145h15v-15v-526v-15h-15h-145h-15v15v526v15z" />
    <glyph glyph-name="iacute" unicode="&#xed;" horiz-adv-x="262" 
d="M124 836h11h134h25l-12 -22l-106 -204l-4 -8h-9h-93h-21l7 20l65 204zM38 556h15h146h15v-15v-526v-15h-15h-146h-15v15v526v15z" />
    <glyph glyph-name="icircumflex" unicode="&#xee;" horiz-adv-x="310" 
d="M99 835h10h109h10l6 -8l118 -209l12 -22h-26h-89h-9l-5 8l-72 104l-71 -104l-5 -8h-10h-89h-25l12 22l118 209zM60 556h15h176h15v-15v-526v-15h-15h-176h-15v15v526v15z" />
    <glyph glyph-name="idieresis" unicode="&#xef;" horiz-adv-x="303" 
d="M-46 684q0 37 23.5 59t57.5 22q36 0 63.5 -22.5t27.5 -58.5t-27.5 -58.5t-63.5 -22.5q-34 0 -57.5 22t-23.5 59zM172 684q0 36 27.5 58.5t63.5 22.5q34 0 57.5 -22t23.5 -59t-23.5 -59t-57.5 -22q-36 0 -63.5 22.5t-27.5 58.5zM46 556h15h176h15v-15v-526v-15h-15h-176
h-15v15v526v15z" />
    <glyph glyph-name="eth" unicode="&#xf0;" horiz-adv-x="695" 
d="M407 571l-24 -39q52 -9 89 -33q-14 44 -65 72zM22 263q0 115 81.5 195t214.5 81l-42 21l-15 7l9 14l16 25q-33 4 -59 4h-19l4 18l24 119l3 12h13h8q57 0 113 -11l74 119l8 12l14 -7l79 -42l14 -7l-8 -14l-61 -100q165 -79 165 -268v-426v-15h-15h-149h-17v15v15
q-65 -43 -156 -43q-134 0 -216.5 80t-82.5 196zM477 277q0 56 -39.5 93.5t-99.5 37.5t-100 -37.5t-40 -93.5t40 -92.5t100 -36.5t99.5 36.5t39.5 92.5z" />
    <glyph glyph-name="ntilde" unicode="&#xf1;" 
d="M485 791h16h52h15v-15q0 -71 -35.5 -117t-95.5 -46q-29 0 -53 8t-36.5 17.5t-27 17.5t-27.5 8q-28 0 -45.5 -13.5t-17.5 -39.5v-15h-16h-59h-15v15q0 72 46.5 124.5t106.5 52.5q38 0 68 -13.5t49 -27t29 -13.5q26 0 36 8.5t10 33.5v15zM219 503q80 65 181 65
q88 0 152.5 -57t64.5 -151v-2v-343v-15h-15h-150h-16v15v281q0 50 -19 79t-70 29q-96 0 -128 -60v-329v-15h-16h-150h-15v15v526v15h15h150h16v-15v-38z" />
    <glyph glyph-name="ograve" unicode="&#xf2;" horiz-adv-x="675" 
d="M154 836h27h144h12l3 -10l72 -204l7 -20h-23h-101h-10l-5 8l-113 204zM22 278q0 127 89 208.5t227 81.5t227 -81.5t89 -208.5t-89 -209t-227 -82t-227 82t-89 209zM478 278q0 58 -40 94t-100 36t-100 -36t-40 -94t40 -94t100 -36t100 36t40 94z" />
    <glyph glyph-name="oacute" unicode="&#xf3;" horiz-adv-x="675" 
d="M372 836h11h146h25l-12 -22l-114 -204l-4 -8h-10h-102h-22l7 20l71 204zM22 278q0 127 89 208.5t227 81.5t227 -81.5t89 -208.5t-89 -209t-227 -82t-227 82t-89 209zM478 278q0 58 -40 94t-100 36t-100 -36t-40 -94t40 -94t100 -36t100 36t40 94z" />
    <glyph glyph-name="ocircumflex" unicode="&#xf4;" horiz-adv-x="675" 
d="M280 835h9h97h9l5 -8l125 -209l13 -22h-27h-96h-10l-4 8l-63 104l-62 -104l-4 -8h-10h-97h-27l13 22l124 209zM22 278q0 127 89 208.5t227 81.5t227 -81.5t89 -208.5t-89 -209t-227 -82t-227 82t-89 209zM478 278q0 58 -40 94t-100 36t-100 -36t-40 -94t40 -94t100 -36
t100 36t40 94z" />
    <glyph glyph-name="otilde" unicode="&#xf5;" horiz-adv-x="675" 
d="M465 791h16h56h15v-15q0 -70 -37.5 -116.5t-97.5 -46.5q-37 0 -63.5 12.5t-45 25.5t-33.5 13q-28 0 -45.5 -13.5t-17.5 -39.5v-15h-16h-57h-15v15q0 72 46 124.5t105 52.5q37 0 67 -13.5t48.5 -27t28.5 -13.5q26 0 36 8.5t10 33.5v15zM22 278q0 127 89 208.5t227 81.5
t227 -81.5t89 -208.5t-89 -209t-227 -82t-227 82t-89 209zM478 278q0 58 -40 94t-100 36t-100 -36t-40 -94t40 -94t100 -36t100 36t40 94z" />
    <glyph glyph-name="odieresis" unicode="&#xf6;" horiz-adv-x="675" 
d="M143 684q0 37 25.5 59t62.5 22t62.5 -22t25.5 -59t-25.5 -59t-62.5 -22t-62.5 22t-25.5 59zM356 684q0 37 25.5 59t62.5 22t62.5 -22t25.5 -59t-25.5 -59t-62.5 -22t-62.5 22t-25.5 59zM22 278q0 127 89 208.5t227 81.5t227 -81.5t89 -208.5t-89 -209t-227 -82t-227 82
t-89 209zM478 278q0 58 -40 94t-100 36t-100 -36t-40 -94t40 -94t100 -36t100 36t40 94z" />
    <glyph glyph-name="divide" unicode="&#xf7;" horiz-adv-x="648" 
d="M215 570q0 45 31.5 72t77.5 27t78 -27t32 -72t-32 -72t-78 -27t-77.5 27t-31.5 72zM38 467h15h542h15v-15v-144v-15h-15h-542h-15v15v144v15zM215 190q0 45 31.5 72t77.5 27t78 -27t32 -72t-32 -72t-78 -27t-77.5 27t-31.5 72z" />
    <glyph glyph-name="oslash" unicode="&#xf8;" horiz-adv-x="705" 
d="M477 646h9h157h25l-12 -22l-74 -134q87 -82 87 -211q0 -128 -89 -210t-227 -82q-38 0 -73 8l-46 -77l-5 -8h-9h-157h-25l12 22l75 134q-87 82 -87 211q0 128 88.5 209.5t226.5 81.5q34 0 74 -7l45 77zM221 224l116 198q-55 -6 -90 -45t-35 -99q0 -30 9 -54zM493 278
q0 28 -8 52l-115 -196q54 6 88.5 45t34.5 99z" />
    <glyph glyph-name="ugrave" unicode="&#xf9;" 
d="M162 836h27h147h12l3 -10l73 -204l7 -20h-23h-102h-10l-4 8l-118 204zM38 556h15h150h16v-15v-282q0 -50 19 -78.5t70 -28.5q95 0 128 60v329v15h16h150h15v-15v-526v-15h-15h-150h-16v15v37q-80 -65 -183 -65q-88 0 -151.5 56.5t-63.5 150.5v4v343v15z" />
    <glyph glyph-name="uacute" unicode="&#xfa;" 
d="M336 836h12h148h25l-12 -22l-116 -204l-5 -8h-9h-103h-22l7 20l71 204zM38 556h15h150h16v-15v-282q0 -50 19 -78.5t70 -28.5q95 0 128 60v329v15h16h150h15v-15v-526v-15h-15h-150h-16v15v37q-80 -65 -183 -65q-88 0 -151.5 56.5t-63.5 150.5v4v343v15z" />
    <glyph glyph-name="ucircumflex" unicode="&#xfb;" 
d="M263 835h10h99h10l4 -8l125 -209l12 -22h-25h-98h-9l-5 8l-63 104l-64 -104l-5 -8h-9h-96h-25l12 22l123 209zM38 556h15h150h16v-15v-282q0 -50 19 -78.5t70 -28.5q95 0 128 60v329v15h16h150h15v-15v-526v-15h-15h-150h-16v15v37q-80 -65 -183 -65q-88 0 -151.5 56.5
t-63.5 150.5v4v343v15z" />
    <glyph glyph-name="udieresis" unicode="&#xfc;" 
d="M138 684q0 37 25 59t62 22t63 -22t26 -59t-26 -59t-63 -22t-62 22t-25 59zM352 684q0 37 26 59t63 22t61.5 -22t24.5 -59t-24.5 -59t-61.5 -22t-63 22t-26 59zM38 556h15h150h16v-15v-282q0 -50 19 -78.5t70 -28.5q95 0 128 60v329v15h16h150h15v-15v-526v-15h-15h-150
h-16v15v37q-80 -65 -183 -65q-88 0 -151.5 56.5t-63.5 150.5v4v343v15z" />
    <glyph glyph-name="yacute" unicode="&#xfd;" 
d="M338 836h12h147h25l-12 -22l-115 -204l-4 -8h-10h-103h-23l7 20l72 204zM38 556h15h150h16v-15v-265q0 -54 19 -85t70 -31q52 0 87 21t46 57v303v15h17h144h15v-15v-477q0 -126 -80 -210t-218 -84q-22 0 -46 1.5t-45 4.5t-40.5 6.5t-35.5 6.5t-28 6t-18 5l-7 1l-12 3
l1 12l12 130l2 18l17 -4q120 -30 179 -30q71 0 107 32.5t36 105.5v4v17q-83 -67 -188 -67q-88 0 -151.5 57t-63.5 151v2v309v15z" />
    <glyph glyph-name="thorn" unicode="&#xfe;" horiz-adv-x="695" 
d="M219 525q66 43 156 43q136 0 217.5 -81t81.5 -209t-81.5 -209.5t-217.5 -81.5q-91 0 -156 43v-215v-15h-17h-149h-15v15v876v15h15h149h17v-15v-166zM498 278q0 58 -40 94t-100 36t-99.5 -36t-39.5 -94t39.5 -94t99.5 -36t100 36t40 94z" />
    <glyph glyph-name="ydieresis" unicode="&#xff;" 
d="M140 684q0 37 25 59t62 22t63 -22t26 -59t-26 -59t-63 -22t-62 22t-25 59zM355 684q0 37 26 59t63 22t61.5 -22t24.5 -59t-24.5 -59t-61.5 -22t-63 22t-26 59zM38 556h15h150h16v-15v-265q0 -54 19 -85t70 -31q52 0 87 21t46 57v303v15h17h144h15v-15v-477
q0 -126 -80 -210t-218 -84q-22 0 -46 1.5t-45 4.5t-40.5 6.5t-35.5 6.5t-28 6t-18 5l-7 1l-12 3l1 12l12 130l2 18l17 -4q120 -30 179 -30q71 0 107 32.5t36 105.5v4v17q-83 -67 -188 -67q-88 0 -151.5 57t-63.5 151v2v309v15z" />
    <glyph glyph-name="OE" unicode="&#x152;" horiz-adv-x="1061" 
d="M22 352q0 160 109.5 263t275.5 103q54 0 104 -13h157h341h15v-15v-137v-15h-15h-326v-101h294h15v-15v-138v-15h-15h-294v-102h326h15v-15v-137v-15h-15h-341h-157q-54 -13 -104 -13q-166 0 -275.5 102.5t-109.5 262.5zM490 519q-32 13 -83 13q-86 0 -142 -50t-56 -130
t56 -130t142 -50q45 0 83 15v332z" />
    <glyph glyph-name="oe" unicode="&#x153;" horiz-adv-x="1080" 
d="M22 278q0 127 87.5 208.5t220.5 81.5q135 0 225 -87q90 87 224 87q119 0 199 -75t80 -212q0 -29 -2 -45l-2 -13h-13h-389q14 -35 48 -55t78 -20q73 0 111 60l8 12l13 -7l125 -63l14 -7l-8 -14q-40 -66 -109 -104t-154 -38q-131 0 -223 87q-90 -87 -225 -87
q-133 0 -220.5 82t-87.5 209zM464 278q0 58 -38 94t-96 36t-96 -36t-38 -94t38 -94t96 -36t96 36t38 94zM878 350q-16 58 -100 58q-72 0 -111 -58h211z" />
    <glyph glyph-name="Scaron" unicode="&#x160;" horiz-adv-x="671" 
d="M147 960h28h97h10l4 -8l62 -104l61 104l5 8h10h97h27l-13 -22l-125 -208l-5 -8h-10h-95h-9l-5 8l-126 208zM45 494q0 108 88 166t213 58q62 0 117.5 -13t92.5 -33t54 -31t29 -21l1 -1l8 -7l-6 -11l-72 -116l-9 -14l-13 10q-4 4 -29 18.5t-80 32.5t-108 18
q-51 0 -69.5 -19.5t-18.5 -42.5q0 -15 42.5 -27t103 -26.5t121 -37.5t103 -70.5t42.5 -114.5q0 -112 -83.5 -168.5t-232.5 -56.5q-181 0 -307 84l-10 8l7 12l75 123l8 13l13 -8q13 -8 34.5 -19t81.5 -29.5t111 -18.5q35 0 58.5 6.5t33 17.5t12.5 20.5t3 21.5q0 19 -23 33.5
t-59.5 24.5t-80.5 20t-88 25.5t-80.5 36t-59.5 55.5t-23 81z" />
    <glyph glyph-name="scaron" unicode="&#x161;" horiz-adv-x="564" 
d="M88 835h26h96h9l5 -8l65 -105l63 105l5 8h10h96h25l-12 -22l-123 -209l-5 -8h-10h-99h-10l-5 8l-124 209zM52 390q0 94 69.5 136t176.5 42q146 0 236 -90l7 -9l-8 -9l-73 -96l-11 -15l-12 14q-49 49 -139 49q-72 0 -72 -27q0 -6 33.5 -13t81 -18.5t94.5 -30t80.5 -57.5
t33.5 -93q0 -186 -259 -186q-46 0 -90 9.5t-71.5 21t-52 26.5t-32.5 21.5t-12 10.5l-10 9l9 11l80 97l11 13l12 -13q7 -7 18 -15.5t51 -23t87 -14.5q87 0 87 33q0 19 -33.5 31t-81.5 23t-95.5 26.5t-81 50.5t-33.5 86z" />
    <glyph glyph-name="Ydieresis" unicode="&#x178;" horiz-adv-x="802" 
d="M223 787q0 37 25 59t61 22t60.5 -22t24.5 -59t-24.5 -59t-60.5 -22t-61 22t-25 59zM431 787q0 37 25 59t61 22t60.5 -22t24.5 -59t-24.5 -59t-60.5 -22t-61 22t-25 59zM8 705h26h178h9l4 -8l187 -311l188 311l5 8h9h177h27l-14 -22l-295 -461v-207v-15h-15h-163h-16v15
v207l-294 461z" />
    <glyph glyph-name="Zcaron" unicode="&#x17d;" horiz-adv-x="762" 
d="M183 953h28h94h9l5 -8l63 -103l61 103l5 8h9h97h27l-13 -22l-125 -208l-4 -8h-10h-95h-10l-4 8l-124 208zM58 705h15h616h15v-15v-92v-5l-3 -4l-372 -422h381h15v-15v-137v-15h-15h-657h-15v15v92v5l3 4l370 422h-338h-15v15v137v15z" />
    <glyph glyph-name="zcaron" unicode="&#x17e;" horiz-adv-x="639" 
d="M120 835h25h97h10l4 -8l64 -105l64 105l4 8h10h97h25l-12 -22l-125 -209l-5 -8h-10h-98h-9l-5 8l-124 209zM52 556h15h505h15v-15v-86v-5l-4 -4l-282 -282h286h15v-15v-134v-15h-15h-534h-15v15v86v5l4 4l277 282h-252h-15v15v134v15z" />
    <glyph glyph-name="quoteleft" unicode="&#x2018;" horiz-adv-x="243" 
d="M122 747q42 0 70.5 -26.5t28.5 -72.5v-2q0 -10 -1 -22t-5 -39t-15 -49.5t-27 -45t-45 -36t-66 -13.5h-15v15v48v15h15q15 0 29 9t18 22q-37 4 -61.5 30.5t-24.5 67.5q0 46 28.5 72.5t70.5 26.5z" />
    <glyph glyph-name="quoteright" unicode="&#x2019;" horiz-adv-x="243" 
d="M122 747q42 0 70.5 -26.5t28.5 -72.5v-2q0 -10 -1 -22t-5 -39t-15 -49.5t-27 -45t-45 -36t-66 -13.5h-15v15v48v15h15q15 0 29 9t18 22q-37 4 -61.5 30.5t-24.5 67.5q0 46 28.5 72.5t70.5 26.5z" />
    <glyph glyph-name="quotedblleft" unicode="&#x201c;" horiz-adv-x="438" 
d="M317 747q42 0 70.5 -26.5t28.5 -72.5v-3q0 -14 -1.5 -30.5t-10 -50t-24 -58.5t-47.5 -45t-75 -20h-15v15v48v15h15q15 0 28.5 9t17.5 22q-70 9 -84 75q-2 -20 -5.5 -40t-14.5 -47.5t-27 -47.5t-45 -34.5t-66 -14.5h-15v15v48v15h15q15 0 29 9t18 22q-37 4 -61.5 30.5
t-24.5 67.5q0 46 28.5 72.5t70.5 26.5q37 0 64.5 -21.5t33.5 -58.5q6 37 33 58.5t64 21.5z" />
    <glyph glyph-name="quotedblright" unicode="&#x201d;" horiz-adv-x="438" 
d="M317 747q42 0 70.5 -26.5t28.5 -72.5v-3q0 -14 -1.5 -30.5t-10 -50t-24 -58.5t-47.5 -45t-75 -20h-15v15v48v15h15q15 0 28.5 9t17.5 22q-70 9 -84 75q-2 -20 -5.5 -40t-14.5 -47.5t-27 -47.5t-45 -34.5t-66 -14.5h-15v15v48v15h15q15 0 29 9t18 22q-37 4 -61.5 30.5
t-24.5 67.5q0 46 28.5 72.5t70.5 26.5q37 0 64.5 -21.5t33.5 -58.5q6 37 33 58.5t64 21.5z" />
    <glyph glyph-name="Euro" unicode="&#x20ac;" horiz-adv-x="919" 
d="M562 815q102 0 189.5 -42t143.5 -118l9 -12l-12 -9l-137 -108l-12 -9l-9 12q-29 39 -74 61.5t-98 22.5q-122 0 -182 -100h156h23l-9 -21l-42 -98l-4 -9h-10h-147q0 -3 0.5 -7.5t0.5 -6.5h136h22l-8 -20l-39 -100l-4 -10h-10h-41q61 -66 158 -66q111 0 172 83l9 12l12 -9
l137 -107l12 -9l-9 -12q-57 -76 -144 -118.5t-189 -42.5q-137 0 -241.5 73t-147.5 196h-135h-22l8 20l39 100l4 10h10h71v14h-90h-23l9 21l42 98l4 9h10h62q37 137 146 219.5t254 82.5z" />
    <glyph glyph-name="trademark" unicode="&#x2122;" horiz-adv-x="753" 
d="M38 720h260h15v-15v-65v-15h-15h-79v-251v-15h-15h-73h-15v15v251h-78h-15v15v65v15h15zM341 720h82h8l5 -7l93 -154l93 154l5 7h8h82h15v-15v-331v-15h-15h-73h-15v15v159l-87 -141l-13 -21l-13 21l-87 141v-159v-15h-15h-73h-15v15v331v15h15z" />
    </font>
</defs>
</svg>
