<?xml version="1.0" encoding="UTF-8"?><svg id="Calque_2" xmlns="http://www.w3.org/2000/svg" viewBox="0 0 109.7 128.36"><defs><style>.cls-1{fill:#34744b;}</style></defs><g id="Calque_1-2"><path class="cls-1" d="M103.83,71.38c5.92-10.81,10.36-28.1-2.11-49.09C91.5,5.09,73.56-2.72,52.5.85,31.61,4.39,14.18,18.14,11.07,33.48L0,83.68h12.1v24.67h23.09l.52,20.01h63.32l-9.45-39.84c2.99-2.45,9.44-8.36,14.25-17.15ZM91.4,122.33h-49.81l-.52-20.01h-22.93v-24.67H7.51l9.46-42.91c2.61-12.84,18.31-24.85,36.54-27.94,8.74-1.48,30.42-2.64,43.03,18.57,8.8,14.81,9.51,29.26,2.11,42.92-5.64,10.42-14.11,16.52-14.19,16.58l-1.66,1.18,8.61,36.28Z"/><path class="cls-1" d="M75.79,47.13l-.46-.24c-4.01,1.88-9,3.01-14.33,3.01s-10.32-1.13-14.32-3c-2.23,1.14-4.06,2.52-5.34,4.06,5.21,3.11,12.06,4.97,19.67,4.97s14.44-1.86,19.65-4.97c-.15-.19-.31-.37-.48-.55-1.15-1.22-2.62-2.33-4.38-3.28Z"/><path class="cls-1" d="M38.53,40.03c-.78-1.4-1.21-2.89-1.21-4.42,0-7.74,10.84-14.28,23.68-14.28,5.98,0,11.53,1.42,15.75,3.72,1.93,1.05,3.59,2.29,4.88,3.67,1.94,2.06,3.05,4.42,3.05,6.9,0,1.53-.42,3.01-1.2,4.4,0,0,0,0,0,0-.16.29-.33.58-.53.86-.19.27-.38.54-.6.81,1.58,1.11,2.98,2.34,4.16,3.69.11.13.23.27.34.4.22-.27.43-.54.63-.81.21-.28.41-.56.6-.85,0,0,0,0,0,0,1.7-2.57,2.63-5.45,2.63-8.5,0-3.89-1.53-7.51-4.2-10.56-1.35-1.55-3-2.95-4.88-4.18-5.31-3.47-12.54-5.58-20.63-5.58-16.66,0-29.71,8.92-29.71,20.32,0,3.06.94,5.94,2.64,8.52,1.3-1.49,2.85-2.87,4.6-4.1Z"/><path class="cls-1" d="M86.51,66.49c2.67-3.06,4.2-6.67,4.2-10.56,0-3.05-.94-5.93-2.63-8.5-.02.02-.03.04-.05.06-1.29,1.48-2.82,2.84-4.54,4.04.78,1.39,1.2,2.87,1.2,4.4,0,2.48-1.11,4.84-3.05,6.9-1.29,1.37-2.95,2.61-4.88,3.66-4.22,2.31-9.77,3.73-15.75,3.73-12.84,0-23.68-6.54-23.68-14.29,0-1.53.42-3.02,1.21-4.42.16-.29.34-.57.53-.85.18-.27.38-.54.59-.8,1.23-1.53,2.9-2.92,4.9-4.1.32-.19.65-.38.99-.55.37-.2.75-.39,1.14-.57,4.01-1.88,9-3,14.33-3s10.32,1.13,14.32,3c.16-.07.32-.15.47-.24,1.76-.95,3.22-2.05,4.37-3.27.17-.18.34-.37.49-.56-5.2-3.11-12.04-4.97-19.65-4.97s-14.46,1.86-19.67,4.97c-.29.17-.59.35-.88.54-.27.17-.55.36-.82.54-1.74,1.22-3.25,2.59-4.49,4.1-.22.26-.43.53-.63.8-.21.27-.4.56-.59.84-1.7,2.58-2.64,5.46-2.64,8.52,0,11.39,13.05,20.32,29.71,20.32,8.09,0,15.32-2.1,20.63-5.58,1.88-1.22,3.53-2.63,4.88-4.18Z"/><path class="cls-1" d="M86.51,46.17l.34-.4c-.11-.13-.23-.27-.34-.4-1.17-1.35-2.57-2.58-4.16-3.69-.23.28-.47.56-.72.83-1.13,1.2-2.54,2.3-4.17,3.26,0,0,0,0,0,0-.23.14-.47.27-.71.4-.11.06-.21.11-.32.17-.36.19-.72.38-1.1.55l.46.24c1.76.96,3.23,2.06,4.38,3.28.17.18.33.36.48.55.29-.17.59-.36.87-.54.04-.03.07-.05.11-.07.25-.16.48-.32.72-.49h0c1.58-1.1,2.98-2.34,4.15-3.69Z"/></g></svg>