<?xml version="1.0" encoding="UTF-8"?><svg id="Calque_2" xmlns="http://www.w3.org/2000/svg" viewBox="0 0 394.57 129.42"><defs><style>.cls-1{fill:#1d1d1b;}</style></defs><g id="Calque_1-2"><polygon class="cls-1" points="137.27 20.62 157 52.94 176.89 20.62 176.89 57.4 189.48 57.4 189.48 .16 175.35 .16 157 30.29 138.81 .16 124.69 .16 124.69 57.4 137.27 57.4 137.27 20.62"/><path class="cls-1" d="M233.48,57.4v-28.17c0-6.17-1.5-10.7-4.51-13.6-3-2.9-6.7-4.34-11.08-4.34-2.22,0-4.41.2-6.58.61-2.17.41-3.95.87-5.36,1.38-1.41.51-2.75,1.11-4.02,1.79-1.27.68-2.1,1.14-2.48,1.38-.38.24-.68.45-.89.61l4.47,8.69,1.54-.89c1.03-.6,2.58-1.19,4.67-1.79,2.08-.6,4.18-.89,6.29-.89,4.11,0,6.17,2.38,6.17,7.15v.49h-9.99c-5.14,0-9.53,1.37-13.15,4.1-3.63,2.73-5.44,6.73-5.44,11.98,0,3.95,1.45,7.04,4.34,9.26,2.9,2.22,6.18,3.33,9.86,3.33,6.22,0,10.99-2.27,14.29-6.82v5.76h11.85ZM218.83,45.91c-1.87,2.46-4.21,3.69-7.02,3.69-2.17,0-3.83-.5-4.99-1.5-1.17-1-1.75-2.37-1.75-4.1,0-4.22,2.38-6.33,7.15-6.33h9.42v1.22c0,2.22-.93,4.56-2.8,7.02Z"/><path class="cls-1" d="M251.51,36.62c0-3.63,1.18-6.79,3.53-9.5,2.35-2.71,6.05-4.06,11.08-4.06v-11.77c-2.98,0-5.75.66-8.32,1.99-2.57,1.33-4.67,3.15-6.29,5.48v-6.5h-11.85v45.14h11.85v-20.79Z"/><path class="cls-1" d="M312.73,61.14c0-2.98-.66-5.52-1.99-7.63-1.33-2.11-3.15-3.71-5.48-4.79-2.33-1.08-4.79-1.87-7.39-2.35-2.6-.49-5.47-.73-8.61-.73h-2.44c-1.25,0-2.21-.04-2.88-.12-.68-.08-1.31-.32-1.91-.73-.6-.41-.89-1.01-.89-1.83,0-.97.24-1.84.73-2.6,2,.6,4.47.89,7.39.89,5.74,0,10.2-1.27,13.4-3.82,3.19-2.54,4.79-6.25,4.79-11.12,0-1.68-.08-2.89-.24-3.65,0-1.46,1.73-2.19,5.2-2.19h1.14v-9.26c-5.03,0-8.58,1.38-10.64,4.14-3.19-2.71-7.74-4.06-13.64-4.06s-10.2,1.29-13.4,3.86c-3.19,2.57-4.79,6.29-4.79,11.16,0,5.25,1.95,9.2,5.85,11.85-3.57,1.35-5.36,3.6-5.36,6.74,0,2.33.78,4.36,2.35,6.09-5.41,2.17-8.12,5.55-8.12,10.15,0,10.07,7.82,15.1,23.46,15.1s23.46-5.03,23.46-15.1ZM284.55,21.84c1.19-.97,2.76-1.46,4.71-1.46s3.53.49,4.75,1.46c1.22.97,1.83,2.46,1.83,4.47s-.61,3.48-1.83,4.43c-1.22.95-2.8,1.42-4.75,1.42-4.33,0-6.5-1.95-6.5-5.85,0-2,.59-3.49,1.79-4.47ZM281.35,66.01c-1.27-.38-2.23-.97-2.88-1.79-.65-.81-.97-1.84-.97-3.09,0-.97.24-1.79.73-2.44.49-.65,1.04-1.14,1.67-1.46.62-.32,1.54-.57,2.76-.73,1.22-.16,2.22-.26,3-.28.78-.03,1.91-.04,3.37-.04h2.35c3.09,0,5.45.31,7.1.93,1.65.62,2.48,1.96,2.48,4.02,0,1.24-.33,2.27-.97,3.09-.65.81-1.6,1.41-2.84,1.79-1.25.38-2.45.62-3.61.73-1.17.11-2.59.16-4.26.16s-3.1-.05-4.26-.16c-1.17-.11-2.38-.35-3.65-.73Z"/><path class="cls-1" d="M318.33,51.8c4.44,4.44,9.96,6.66,16.56,6.66s12.12-2.22,16.56-6.66c4.44-4.44,6.66-10.09,6.66-16.97s-2.22-12.52-6.66-16.93c-4.44-4.41-9.96-6.62-16.56-6.62s-12.13,2.21-16.56,6.62c-4.44,4.41-6.66,10.06-6.66,16.93s2.22,12.53,6.66,16.97ZM326.49,25.49c2.24-2.44,5.05-3.65,8.4-3.65s6.14,1.22,8.36,3.65c2.22,2.44,3.33,5.55,3.33,9.34s-1.11,6.92-3.33,9.38c-2.22,2.46-5.01,3.69-8.36,3.69s-6.16-1.23-8.4-3.69c-2.25-2.46-3.37-5.59-3.37-9.38s1.12-6.9,3.37-9.34Z"/><path class="cls-1" d="M390.83,45.47l-.81.57c-.49.43-1.3.85-2.44,1.26-1.14.41-2.33.61-3.57.61-1.08,0-1.98-.24-2.68-.73-.7-.49-1.22-1.19-1.54-2.11-.32-.92-.54-1.84-.65-2.76-.11-.92-.16-2-.16-3.25v-15.91h11.69v-10.88h-11.69V0h-11.45v12.26h-7.39v10.88h7.39v11.69c0,2.82.07,5.18.2,7.1.13,1.92.5,4.01,1.1,6.25.59,2.25,1.42,4.06,2.48,5.44,1.06,1.38,2.58,2.53,4.59,3.45,2,.92,4.38,1.38,7.15,1.38,2.33,0,4.48-.41,6.45-1.22,1.98-.81,3.25-1.46,3.82-1.95.57-.49.99-.89,1.26-1.22l-3.73-8.61Z"/><path class="cls-1" d="M167.07,89.31c0-5.52-1.94-9.93-5.81-13.23-3.87-3.3-9.76-4.95-17.66-4.95h-18.92v57.24h12.58v-20.79h6.33c1.46,0,2.54-.03,3.25-.08l9.5,20.87h12.91l-11.85-23.38c6.44-2.98,9.66-8.2,9.66-15.67ZM152.74,94.87c-1.98,1.06-5.02,1.58-9.13,1.58h-6.33v-14.21h6.33c4.11,0,7.16.51,9.13,1.54,1.98,1.03,2.96,2.87,2.96,5.52s-.99,4.51-2.96,5.56Z"/><path class="cls-1" d="M196.22,82.24c-6.6,0-12.15,2.21-16.64,6.62-4.49,4.41-6.74,10.05-6.74,16.93s2.22,12.53,6.66,16.97c4.44,4.44,9.96,6.66,16.56,6.66,4.27,0,8.15-.97,11.61-2.92,3.46-1.95,6.22-4.63,8.28-8.04l-10.15-5.12c-2.22,3.63-5.47,5.44-9.74,5.44-2.87,0-5.35-.88-7.43-2.64-2.08-1.76-3.4-4.13-3.94-7.1h32.31c.11-.86.16-2.11.16-3.73,0-7.41-2.02-13.11-6.05-17.09-4.03-3.98-9-5.97-14.9-5.97ZM185.5,99.94c.92-2.22,2.33-3.96,4.22-5.24,1.89-1.27,4-1.91,6.33-1.91,3.3,0,5.67.77,7.1,2.31,1.43,1.54,2.15,3.15,2.15,4.83h-19.81Z"/><path class="cls-1" d="M246.8,82.24c-5.41,0-9.74,1.62-12.99,4.87v-20.05h-11.85v61.3h11.85v-3.9c3.3,3.3,7.63,4.95,12.99,4.95,6.5,0,11.76-2.19,15.79-6.58,4.03-4.38,6.05-10.07,6.05-17.05s-2.02-12.65-6.05-17.01c-4.03-4.36-9.3-6.54-15.79-6.54ZM253.86,115.17c-2.22,2.46-5.01,3.69-8.36,3.69s-6.14-1.23-8.36-3.69c-2.22-2.46-3.33-5.59-3.33-9.38s1.11-6.9,3.33-9.34c2.22-2.44,5.01-3.65,8.36-3.65s6.14,1.22,8.36,3.65c2.22,2.44,3.33,5.55,3.33,9.34s-1.11,6.91-3.33,9.38Z"/><path class="cls-1" d="M295.43,82.24c-6.6,0-12.13,2.21-16.56,6.62-4.44,4.41-6.66,10.05-6.66,16.93s2.22,12.53,6.66,16.97c4.44,4.44,9.96,6.66,16.56,6.66s12.12-2.22,16.56-6.66c4.44-4.44,6.66-10.09,6.66-16.97s-2.22-12.52-6.66-16.93c-4.44-4.41-9.96-6.62-16.56-6.62ZM303.8,115.17c-2.22,2.46-5.01,3.69-8.36,3.69s-6.16-1.23-8.4-3.69c-2.25-2.46-3.37-5.59-3.37-9.38s1.12-6.9,3.37-9.34c2.25-2.44,5.05-3.65,8.4-3.65s6.14,1.22,8.36,3.65c2.22,2.44,3.33,5.55,3.33,9.34s-1.11,6.91-3.33,9.38Z"/><path class="cls-1" d="M353.73,112.28c-.81,1.95-2.15,3.48-4.02,4.59-1.87,1.11-4.07,1.66-6.62,1.66-5.2,0-7.79-3.54-7.79-10.64v-24.68h-11.85v29.72c0,4.98,1.57,8.97,4.71,11.98,3.14,3,6.77,4.51,10.88,4.51,2.65,0,5.33-.64,8.04-1.91,2.71-1.27,4.92-3.02,6.66-5.24v6.09h11.85v-45.14h-11.85v29.07Z"/><rect class="cls-1" x="371.67" y="67.06" width="11.85" height="61.3"/><path class="cls-1" d="M52.5.85C31.61,4.39,14.18,18.14,11.07,33.48L0,83.68h12.1v24.67h23.09l.52,20.01h63.32l-9.45-39.84c2.99-2.45,9.44-8.36,14.25-17.15,5.92-10.81,10.36-28.1-2.11-49.09C91.5,5.09,73.56-2.72,52.5.85ZM98.64,68.29c-5.64,10.41-14.11,16.52-14.19,16.58l-1.66,1.18,8.61,36.28h-49.81l-.52-20.01h-22.93v-24.67H7.51l9.46-42.91c2.61-12.84,18.31-24.85,36.54-27.94,8.74-1.48,30.42-2.64,43.03,18.57,8.8,14.81,9.51,29.26,2.11,42.92Z"/><path class="cls-1" d="M75.79,47.13l-.46-.24c-4.01,1.88-9,3.01-14.33,3.01s-10.32-1.13-14.32-3c-2.23,1.14-4.06,2.52-5.34,4.06,5.21,3.11,12.06,4.97,19.67,4.97s14.44-1.86,19.65-4.97c-.15-.19-.31-.37-.48-.55-1.15-1.22-2.62-2.33-4.38-3.28Z"/><path class="cls-1" d="M81.63,20.87c-5.31-3.47-12.54-5.58-20.63-5.58-16.66,0-29.71,8.92-29.71,20.32,0,3.06.94,5.94,2.64,8.52,1.3-1.49,2.85-2.87,4.6-4.1-.78-1.4-1.21-2.89-1.21-4.42,0-7.74,10.85-14.28,23.68-14.28,5.98,0,11.53,1.42,15.75,3.72,1.93,1.05,3.59,2.29,4.88,3.67,1.94,2.06,3.05,4.42,3.05,6.9,0,1.53-.42,3.01-1.2,4.4,0,0,0,0,0,0-.16.29-.33.58-.53.86-.19.27-.38.54-.6.81,1.58,1.11,2.98,2.34,4.16,3.69.11.13.23.27.34.4.22-.27.43-.54.63-.81.21-.28.41-.56.6-.85,0,0,0,0,0,0,1.7-2.57,2.63-5.45,2.63-8.5,0-3.89-1.53-7.51-4.2-10.56-1.35-1.55-3-2.95-4.88-4.18Z"/><path class="cls-1" d="M88.03,47.49c-1.29,1.48-2.82,2.84-4.54,4.04.78,1.39,1.2,2.87,1.2,4.4,0,2.48-1.11,4.84-3.05,6.9-1.29,1.37-2.95,2.61-4.88,3.66-4.22,2.31-9.77,3.73-15.75,3.73-12.84,0-23.68-6.54-23.68-14.29,0-1.53.42-3.02,1.21-4.42.16-.29.34-.57.53-.85.18-.27.38-.54.59-.8,1.23-1.53,2.9-2.92,4.9-4.1.32-.19.65-.38.99-.55.37-.2.75-.39,1.14-.57,4.01-1.88,9-3,14.33-3s10.32,1.13,14.32,3c.16-.07.31-.15.47-.24,1.76-.95,3.22-2.05,4.37-3.27.17-.18.33-.37.49-.56-5.2-3.11-12.04-4.97-19.65-4.97s-14.46,1.86-19.67,4.97c-.29.17-.59.35-.88.54-.27.17-.55.36-.82.54-1.74,1.22-3.25,2.59-4.49,4.1-.22.26-.43.53-.63.8-.21.27-.4.56-.59.84-1.7,2.58-2.64,5.46-2.64,8.52,0,11.39,13.05,20.32,29.71,20.32,8.09,0,15.32-2.1,20.63-5.58,1.88-1.22,3.53-2.63,4.88-4.18,2.67-3.06,4.2-6.67,4.2-10.56,0-3.05-.94-5.93-2.63-8.5-.02.02-.03.04-.05.06Z"/><path class="cls-1" d="M86.51,46.17l.34-.4c-.11-.13-.23-.27-.34-.4-1.17-1.35-2.57-2.58-4.16-3.69-.23.28-.47.56-.72.83-1.13,1.2-2.54,2.3-4.17,3.26,0,0,0,0,0,0-.23.14-.47.27-.71.4-.11.06-.21.11-.32.17-.35.19-.72.38-1.1.55.15.08.31.16.46.24,1.76.96,3.23,2.06,4.38,3.28.17.18.33.36.48.55.29-.17.59-.36.87-.54.04-.03.07-.05.11-.07.25-.16.48-.32.72-.49,0,0,0,0,0,0,1.58-1.1,2.98-2.34,4.15-3.69Z"/></g></svg>