<?xml version="1.0" encoding="UTF-8"?><svg id="Calque_2" xmlns="http://www.w3.org/2000/svg" viewBox="0 0 402.73 187.43"><defs><style>.cls-1{fill:#34744b;}</style></defs><g id="Calque_1-2"><path class="cls-1" d="M5.89,158.73v-16.1h6.99c1.06,0,1.97.19,2.75.58.77.38,1.38.92,1.81,1.62.43.7.64,1.51.64,2.45s-.21,1.75-.64,2.45c-.43.7-1.04,1.24-1.82,1.63s-1.69.59-2.74.59h-5.22v6.79h-1.77ZM7.66,150.41h5.08c1.09,0,1.96-.28,2.6-.84.64-.56.97-1.31.97-2.27s-.32-1.7-.97-2.25c-.64-.55-1.51-.83-2.6-.83h-5.08v6.19Z"/><path class="cls-1" d="M24.13,158.96c-.95,0-1.84-.16-2.68-.47-.84-.31-1.56-.75-2.17-1.32l1.03-1.1c.54.49,1.13.87,1.77,1.14s1.3.4,1.98.4c.92,0,1.67-.19,2.25-.58.58-.38.87-.88.87-1.49,0-.51-.17-.9-.52-1.18-.35-.28-.89-.48-1.62-.59l-2-.28c-1.15-.17-2-.51-2.56-1.03s-.84-1.23-.84-2.12c0-.64.18-1.22.55-1.73.37-.51.88-.9,1.53-1.2.65-.29,1.4-.44,2.24-.44s1.63.12,2.37.37,1.46.63,2.16,1.15l-.9,1.15c-.64-.44-1.27-.77-1.87-.98s-1.22-.31-1.85-.31c-.8,0-1.44.18-1.93.53-.49.35-.74.81-.74,1.38,0,.52.17.92.51,1.18s.88.46,1.63.56l2,.28c1.15.15,2.01.49,2.59,1.01.58.52.86,1.23.86,2.14,0,.66-.21,1.26-.62,1.79-.41.54-.97.96-1.67,1.27-.7.31-1.49.46-2.38.46Z"/><path class="cls-1" d="M30.96,163.66c-.21,0-.42-.01-.61-.03-.19-.02-.35-.05-.47-.08v-1.54c.26.06.58.09.97.09,1.01,0,1.78-.6,2.3-1.79l.69-1.59-4.69-11.5h1.89l3.73,9.45,4.03-9.45h1.84l-5.75,13.32c-.32.74-.67,1.33-1.04,1.79-.37.46-.79.8-1.25,1.01-.47.21-1.01.32-1.62.32Z"/><path class="cls-1" d="M47.2,158.94c-1.09,0-2.08-.26-2.97-.79-.89-.53-1.6-1.25-2.12-2.15-.52-.9-.78-1.92-.78-3.04s.26-2.13.78-3.02c.52-.9,1.23-1.61,2.12-2.15.89-.54,1.88-.8,2.97-.8.84,0,1.66.16,2.44.47.78.31,1.47.76,2.07,1.35l-1.08,1.24c-.46-.49-.99-.86-1.58-1.12-.59-.25-1.2-.38-1.83-.38-.78,0-1.49.2-2.13.59-.64.39-1.14.92-1.52,1.59s-.56,1.41-.56,2.24.19,1.58.56,2.25c.38.67.89,1.21,1.53,1.6.64.39,1.36.59,2.14.59.63,0,1.22-.12,1.78-.37.56-.25,1.08-.61,1.58-1.08l1.06,1.15c-.61.58-1.3,1.03-2.07,1.36-.77.32-1.56.48-2.39.48Z"/><path class="cls-1" d="M53.66,158.73v-16.1l1.7-.39v6.33c.9-1.06,2.12-1.59,3.63-1.59.87,0,1.64.19,2.31.56.67.38,1.19.9,1.56,1.56s.56,1.45.56,2.33v7.29h-1.68v-6.95c0-1.03-.29-1.84-.86-2.43-.58-.59-1.36-.89-2.36-.89-.69,0-1.3.15-1.84.46-.54.31-.98.74-1.33,1.31v8.49h-1.7Z"/><path class="cls-1" d="M71.64,158.96c-1.09,0-2.08-.26-2.98-.79-.9-.53-1.61-1.25-2.13-2.15-.52-.9-.78-1.92-.78-3.04s.26-2.13.78-3.04c.52-.9,1.23-1.62,2.13-2.15.9-.53,1.89-.79,2.98-.79s2.1.26,2.99.79,1.59,1.25,2.12,2.15c.52.91.78,1.92.78,3.04s-.26,2.13-.78,3.04-1.23,1.62-2.12,2.15-1.89.79-2.99.79ZM71.64,157.45c.78,0,1.49-.2,2.13-.6.64-.4,1.14-.94,1.52-1.61.38-.67.56-1.43.56-2.25s-.19-1.6-.56-2.27-.88-1.2-1.52-1.6c-.64-.4-1.35-.6-2.13-.6s-1.49.2-2.13.6c-.64.4-1.14.93-1.52,1.6s-.56,1.42-.56,2.27.19,1.58.56,2.25c.38.67.88,1.21,1.52,1.61.64.4,1.35.6,2.13.6Z"/><path class="cls-1" d="M79.9,158.73v-16.1l1.7-.39v16.49h-1.7Z"/><path class="cls-1" d="M89.86,158.96c-1.09,0-2.08-.26-2.98-.79-.9-.53-1.61-1.25-2.13-2.15-.52-.9-.78-1.92-.78-3.04s.26-2.13.78-3.04c.52-.9,1.23-1.62,2.13-2.15.9-.53,1.89-.79,2.98-.79s2.1.26,2.99.79,1.59,1.25,2.12,2.15c.52.91.78,1.92.78,3.04s-.26,2.13-.78,3.04-1.23,1.62-2.12,2.15-1.89.79-2.99.79ZM89.86,157.45c.78,0,1.49-.2,2.13-.6.64-.4,1.14-.94,1.52-1.61.38-.67.56-1.43.56-2.25s-.19-1.6-.56-2.27-.88-1.2-1.52-1.6c-.64-.4-1.35-.6-2.13-.6s-1.49.2-2.13.6c-.64.4-1.14.93-1.52,1.6s-.56,1.42-.56,2.27.19,1.58.56,2.25c.38.67.88,1.21,1.52,1.61.64.4,1.35.6,2.13.6Z"/><path class="cls-1" d="M103.73,163.66c-.8,0-1.59-.1-2.37-.31-.78-.21-1.5-.5-2.14-.89l.74-1.33c.69.37,1.33.64,1.92.8.59.17,1.18.25,1.78.25,1.09,0,1.92-.26,2.48-.78.57-.52.85-1.29.85-2.3v-1.61c-1.06.89-2.28,1.33-3.66,1.33-1.06,0-2.02-.26-2.9-.78-.87-.52-1.57-1.23-2.08-2.13s-.77-1.9-.77-3,.26-2.1.77-3,1.21-1.61,2.08-2.13c.87-.52,1.85-.78,2.94-.78.66,0,1.3.11,1.92.35.62.23,1.19.57,1.71,1.01v-1.15h1.68v11.87c0,1.47-.43,2.6-1.29,3.39-.86.79-2.09,1.18-3.68,1.18ZM103.48,157.33c.74,0,1.41-.14,2.02-.41s1.11-.67,1.5-1.17v-5.66c-.38-.49-.89-.87-1.51-1.15-.62-.28-1.29-.41-2.01-.41-.8,0-1.51.19-2.15.57-.64.38-1.14.91-1.51,1.58-.37.67-.55,1.41-.55,2.24s.19,1.58.56,2.24.88,1.2,1.52,1.59c.64.39,1.35.59,2.13.59Z"/><path class="cls-1" d="M116.01,158.96c-.87,0-1.65-.19-2.32-.56s-1.2-.9-1.58-1.56c-.38-.67-.56-1.45-.56-2.33v-7.29h1.68v6.95c0,1.03.29,1.84.87,2.43.58.59,1.36.89,2.35.89.69,0,1.31-.16,1.85-.47s.99-.76,1.32-1.32v-8.46h1.7v11.52h-1.7v-1.33c-.9,1.04-2.11,1.56-3.61,1.56Z"/><path class="cls-1" d="M129.63,158.94c-1.1,0-2.1-.26-3-.79-.9-.53-1.61-1.25-2.14-2.15-.53-.9-.79-1.92-.79-3.04s.25-2.1.76-3,1.19-1.61,2.05-2.14c.86-.53,1.82-.79,2.88-.79s1.95.26,2.77.79c.82.53,1.47,1.24,1.96,2.14.48.9.72,1.9.72,3v.53h-9.45c.09.75.33,1.43.72,2.02.39.6.9,1.07,1.53,1.41.63.35,1.32.52,2.07.52.6,0,1.18-.09,1.75-.28s1.04-.44,1.43-.78l1.06,1.13c-.64.48-1.32.83-2.01,1.07-.7.24-1.46.36-2.29.36ZM125.42,152.13h7.71c-.09-.69-.32-1.31-.68-1.85-.36-.54-.81-.97-1.35-1.29-.54-.31-1.13-.47-1.77-.47s-1.26.15-1.82.46c-.55.31-1.01.73-1.38,1.28-.37.54-.61,1.17-.71,1.87Z"/><path class="cls-1" d="M145.82,158.96c-.95,0-1.84-.16-2.68-.47-.84-.31-1.56-.75-2.17-1.32l1.03-1.1c.54.49,1.13.87,1.77,1.14s1.3.4,1.98.4c.92,0,1.67-.19,2.25-.58.58-.38.87-.88.87-1.49,0-.51-.17-.9-.52-1.18-.35-.28-.89-.48-1.62-.59l-2-.28c-1.15-.17-2-.51-2.56-1.03s-.84-1.23-.84-2.12c0-.64.18-1.22.55-1.73.37-.51.88-.9,1.53-1.2.65-.29,1.4-.44,2.24-.44s1.63.12,2.37.37,1.46.63,2.16,1.15l-.9,1.15c-.64-.44-1.27-.77-1.87-.98s-1.22-.31-1.85-.31c-.8,0-1.44.18-1.93.53-.49.35-.74.81-.74,1.38,0,.52.17.92.51,1.18s.88.46,1.63.56l2,.28c1.15.15,2.01.49,2.59,1.01.58.52.86,1.23.86,2.14,0,.66-.21,1.26-.62,1.79-.41.54-.97.96-1.67,1.27-.7.31-1.49.46-2.38.46Z"/><path class="cls-1" d="M152.4,163.43v-16.21h1.68v1.24c1-.95,2.24-1.43,3.73-1.43,1.09,0,2.07.26,2.94.79.87.53,1.57,1.24,2.08,2.13.51.89.77,1.89.77,3.01s-.26,2.13-.77,3.02c-.51.9-1.21,1.61-2.08,2.14-.87.53-1.86.79-2.97.79-.67,0-1.33-.12-1.96-.35s-1.2-.56-1.72-.99v5.84h-1.7ZM157.64,157.42c.81,0,1.54-.2,2.18-.59.64-.39,1.15-.92,1.53-1.59s.56-1.42.56-2.27-.19-1.6-.56-2.28-.88-1.21-1.53-1.6c-.64-.39-1.37-.59-2.18-.59-.72,0-1.39.14-2.01.43-.62.28-1.13.68-1.53,1.18v5.7c.4.49.91.88,1.54,1.16.63.28,1.29.43,2,.43Z"/><path class="cls-1" d="M171.37,158.94c-1.1,0-2.1-.26-3-.79-.9-.53-1.61-1.25-2.14-2.15-.53-.9-.79-1.92-.79-3.04s.25-2.1.76-3,1.19-1.61,2.05-2.14c.86-.53,1.82-.79,2.88-.79s1.95.26,2.77.79c.82.53,1.47,1.24,1.96,2.14.48.9.72,1.9.72,3v.53h-9.45c.09.75.33,1.43.72,2.02.39.6.9,1.07,1.53,1.41.63.35,1.32.52,2.07.52.6,0,1.18-.09,1.75-.28s1.04-.44,1.43-.78l1.06,1.13c-.64.48-1.32.83-2.01,1.07-.7.24-1.46.36-2.29.36ZM167.16,152.13h7.71c-.09-.69-.32-1.31-.68-1.85-.36-.54-.81-.97-1.35-1.29-.54-.31-1.13-.47-1.77-.47s-1.26.15-1.82.46c-.55.31-1.01.73-1.38,1.28-.37.54-.61,1.17-.71,1.87ZM169.62,144.93l2.16-2.67h2.19l-2.85,2.67h-1.49Z"/><path class="cls-1" d="M184.27,158.94c-1.09,0-2.08-.26-2.97-.79-.89-.53-1.6-1.25-2.12-2.15-.52-.9-.78-1.92-.78-3.04s.26-2.13.78-3.02c.52-.9,1.23-1.61,2.12-2.15.89-.54,1.88-.8,2.97-.8.84,0,1.66.16,2.44.47.78.31,1.47.76,2.07,1.35l-1.08,1.24c-.46-.49-.99-.86-1.58-1.12-.59-.25-1.2-.38-1.83-.38-.78,0-1.49.2-2.13.59-.64.39-1.14.92-1.52,1.59s-.56,1.41-.56,2.24.19,1.58.56,2.25c.38.67.89,1.21,1.53,1.6.64.39,1.36.59,2.14.59.63,0,1.22-.12,1.78-.37.56-.25,1.08-.61,1.58-1.08l1.06,1.15c-.61.58-1.3,1.03-2.07,1.36-.77.32-1.56.48-2.39.48Z"/><path class="cls-1" d="M191.59,145c-.31,0-.58-.12-.8-.35-.23-.23-.34-.51-.34-.83s.11-.57.34-.79c.23-.22.5-.33.8-.33.32,0,.59.11.82.33.22.22.33.49.33.82s-.11.57-.33.8c-.22.23-.49.35-.82.35ZM190.74,158.73v-11.52h1.7v11.52h-1.7Z"/><path class="cls-1" d="M198.97,158.94c-.84,0-1.58-.15-2.22-.44s-1.13-.7-1.5-1.22c-.36-.52-.54-1.13-.54-1.82,0-1.09.41-1.95,1.24-2.58s1.95-.94,3.36-.94c1.24,0,2.37.26,3.38.78v-1.52c0-.92-.26-1.61-.78-2.08-.52-.47-1.28-.7-2.28-.7-.57,0-1.14.08-1.71.24-.57.16-1.21.42-1.9.77l-.64-1.31c.83-.4,1.59-.69,2.3-.87s1.41-.28,2.12-.28c1.46,0,2.58.34,3.37,1.04.79.69,1.18,1.68,1.18,2.97v7.75h-1.66v-1.13c-.52.44-1.09.78-1.71,1s-1.29.33-2.01.33ZM196.35,155.42c0,.64.27,1.17.82,1.58s1.25.61,2.1.61c.69,0,1.32-.11,1.89-.32.57-.21,1.08-.55,1.54-1.01v-2.16c-.47-.32-.98-.56-1.52-.7-.54-.15-1.14-.22-1.82-.22-.92,0-1.65.2-2.2.61-.54.41-.82.95-.82,1.62Z"/><path class="cls-1" d="M207.21,158.73v-16.1l1.7-.39v16.49h-1.7Z"/><path class="cls-1" d="M212.66,145c-.31,0-.58-.12-.8-.35-.23-.23-.34-.51-.34-.83s.11-.57.34-.79c.23-.22.5-.33.8-.33.32,0,.59.11.82.33.22.22.33.49.33.82s-.11.57-.33.8c-.22.23-.49.35-.82.35ZM211.8,158.73v-11.52h1.7v11.52h-1.7Z"/><path class="cls-1" d="M220.08,158.96c-.95,0-1.84-.16-2.68-.47-.84-.31-1.56-.75-2.17-1.32l1.03-1.1c.54.49,1.13.87,1.77,1.14s1.3.4,1.98.4c.92,0,1.67-.19,2.25-.58.58-.38.87-.88.87-1.49,0-.51-.17-.9-.52-1.18-.35-.28-.89-.48-1.62-.59l-2-.28c-1.15-.17-2-.51-2.56-1.03s-.84-1.23-.84-2.12c0-.64.18-1.22.55-1.73.37-.51.88-.9,1.53-1.2.65-.29,1.4-.44,2.24-.44s1.63.12,2.37.37,1.46.63,2.16,1.15l-.9,1.15c-.64-.44-1.27-.77-1.87-.98s-1.22-.31-1.85-.31c-.8,0-1.44.18-1.93.53-.49.35-.74.81-.74,1.38,0,.52.17.92.51,1.18s.88.46,1.63.56l2,.28c1.15.15,2.01.49,2.59,1.01.58.52.86,1.23.86,2.14,0,.66-.21,1.26-.62,1.79-.41.54-.97.96-1.67,1.27-.7.31-1.49.46-2.38.46Z"/><path class="cls-1" d="M232.18,158.94c-1.1,0-2.1-.26-3-.79-.9-.53-1.61-1.25-2.14-2.15-.53-.9-.79-1.92-.79-3.04s.25-2.1.76-3,1.19-1.61,2.05-2.14c.86-.53,1.82-.79,2.88-.79s1.95.26,2.77.79c.82.53,1.47,1.24,1.96,2.14.48.9.72,1.9.72,3v.53h-9.45c.09.75.33,1.43.72,2.02.39.6.9,1.07,1.53,1.41.63.35,1.32.52,2.07.52.6,0,1.18-.09,1.75-.28s1.04-.44,1.43-.78l1.06,1.13c-.64.48-1.32.83-2.01,1.07-.7.24-1.46.36-2.29.36ZM227.97,152.13h7.71c-.09-.69-.32-1.31-.68-1.85-.36-.54-.81-.97-1.35-1.29-.54-.31-1.13-.47-1.77-.47s-1.26.15-1.82.46c-.55.31-1.01.73-1.38,1.28-.37.54-.61,1.17-.71,1.87ZM230.43,144.93l2.16-2.67h2.19l-2.85,2.67h-1.49Z"/><path class="cls-1" d="M245.15,158.94c-1.1,0-2.1-.26-3-.79-.9-.53-1.61-1.25-2.14-2.15-.53-.9-.79-1.92-.79-3.04s.25-2.1.76-3,1.19-1.61,2.05-2.14c.86-.53,1.82-.79,2.88-.79s1.95.26,2.77.79c.82.53,1.47,1.24,1.96,2.14.48.9.72,1.9.72,3v.53h-9.45c.09.75.33,1.43.72,2.02.39.6.9,1.07,1.53,1.41.63.35,1.32.52,2.07.52.6,0,1.18-.09,1.75-.28s1.04-.44,1.43-.78l1.06,1.13c-.64.48-1.32.83-2.01,1.07-.7.24-1.46.36-2.29.36ZM240.94,152.13h7.71c-.09-.69-.32-1.31-.68-1.85-.36-.54-.81-.97-1.35-1.29-.54-.31-1.13-.47-1.77-.47s-1.26.15-1.82.46c-.55.31-1.01.73-1.38,1.28-.37.54-.61,1.17-.71,1.87Z"/><path class="cls-1" d="M262.93,158.92c-1.07,0-2.05-.26-2.93-.79-.88-.53-1.58-1.24-2.09-2.14s-.77-1.9-.77-3.02.26-2.12.77-3.01c.51-.89,1.21-1.6,2.09-2.13.88-.53,1.87-.79,2.96-.79.67,0,1.33.11,1.96.33.63.22,1.2.55,1.72.98v-5.7l1.7-.39v16.49h-1.68v-1.22c-1.01.94-2.25,1.4-3.73,1.4ZM263.09,157.42c.72,0,1.39-.14,2.01-.43s1.13-.68,1.53-1.18v-5.7c-.4-.49-.91-.88-1.53-1.16-.62-.28-1.29-.43-2.01-.43-.8,0-1.52.19-2.17.57-.65.38-1.17.91-1.54,1.58s-.56,1.42-.56,2.27.19,1.6.56,2.28c.38.67.89,1.21,1.54,1.61.65.4,1.38.6,2.17.6Z"/><path class="cls-1" d="M274.87,158.94c-.84,0-1.58-.15-2.22-.44s-1.13-.7-1.5-1.22c-.36-.52-.54-1.13-.54-1.82,0-1.09.41-1.95,1.24-2.58s1.95-.94,3.36-.94c1.24,0,2.37.26,3.38.78v-1.52c0-.92-.26-1.61-.78-2.08-.52-.47-1.28-.7-2.28-.7-.57,0-1.14.08-1.71.24-.57.16-1.21.42-1.9.77l-.64-1.31c.83-.4,1.59-.69,2.3-.87s1.41-.28,2.12-.28c1.46,0,2.58.34,3.37,1.04.79.69,1.18,1.68,1.18,2.97v7.75h-1.66v-1.13c-.52.44-1.09.78-1.71,1s-1.29.33-2.01.33ZM272.25,155.42c0,.64.27,1.17.82,1.58s1.25.61,2.1.61c.69,0,1.32-.11,1.89-.32.57-.21,1.08-.55,1.54-1.01v-2.16c-.47-.32-.98-.56-1.52-.7-.54-.15-1.14-.22-1.82-.22-.92,0-1.65.2-2.2.61-.54.41-.82.95-.82,1.62Z"/><path class="cls-1" d="M283.1,158.73v-11.52h1.7v1.36c.9-1.06,2.12-1.59,3.63-1.59.87,0,1.64.19,2.31.56.67.38,1.19.9,1.56,1.56s.56,1.45.56,2.33v7.29h-1.68v-6.95c0-1.03-.29-1.84-.86-2.43-.58-.59-1.36-.89-2.36-.89-.69,0-1.3.15-1.84.46-.54.31-.98.74-1.33,1.31v8.49h-1.7Z"/><path class="cls-1" d="M299.41,158.96c-.95,0-1.84-.16-2.68-.47-.84-.31-1.56-.75-2.17-1.32l1.03-1.1c.54.49,1.13.87,1.77,1.14s1.3.4,1.98.4c.92,0,1.67-.19,2.25-.58.58-.38.87-.88.87-1.49,0-.51-.17-.9-.52-1.18-.35-.28-.89-.48-1.62-.59l-2-.28c-1.15-.17-2-.51-2.56-1.03s-.84-1.23-.84-2.12c0-.64.18-1.22.55-1.73.37-.51.88-.9,1.53-1.2.65-.29,1.4-.44,2.24-.44s1.63.12,2.37.37,1.46.63,2.16,1.15l-.9,1.15c-.64-.44-1.27-.77-1.87-.98s-1.22-.31-1.85-.31c-.8,0-1.44.18-1.93.53-.49.35-.74.81-.74,1.38,0,.52.17.92.51,1.18s.88.46,1.63.56l2,.28c1.15.15,2.01.49,2.59,1.01.58.52.86,1.23.86,2.14,0,.66-.21,1.26-.62,1.79-.41.54-.97.96-1.67,1.27-.7.31-1.49.46-2.38.46Z"/><path class="cls-1" d="M310.93,158.73v-16.1l1.7-.39v16.49h-1.7Z"/><path class="cls-1" d="M315.53,147.05l1.33-4.85h1.84l-1.84,4.85h-1.33Z"/><path class="cls-1" d="M324.11,158.94c-.84,0-1.58-.15-2.22-.44s-1.13-.7-1.5-1.22c-.36-.52-.54-1.13-.54-1.82,0-1.09.41-1.95,1.24-2.58s1.95-.94,3.36-.94c1.24,0,2.37.26,3.38.78v-1.52c0-.92-.26-1.61-.78-2.08-.52-.47-1.28-.7-2.28-.7-.57,0-1.14.08-1.71.24-.57.16-1.21.42-1.9.77l-.64-1.31c.83-.4,1.59-.69,2.3-.87s1.41-.28,2.12-.28c1.46,0,2.58.34,3.37,1.04.79.69,1.18,1.68,1.18,2.97v7.75h-1.66v-1.13c-.52.44-1.09.78-1.71,1s-1.29.33-2.01.33ZM321.49,155.42c0,.64.27,1.17.82,1.58s1.25.61,2.1.61c.69,0,1.32-.11,1.89-.32.57-.21,1.08-.55,1.54-1.01v-2.16c-.47-.32-.98-.56-1.52-.7-.54-.15-1.14-.22-1.82-.22-.92,0-1.65.2-2.2.61-.54.41-.82.95-.82,1.62Z"/><path class="cls-1" d="M336.65,158.96c-.87,0-1.65-.19-2.32-.56s-1.2-.9-1.58-1.56c-.38-.67-.56-1.45-.56-2.33v-7.29h1.68v6.95c0,1.03.29,1.84.87,2.43.58.59,1.36.89,2.35.89.69,0,1.31-.16,1.85-.47s.99-.76,1.32-1.32v-8.46h1.7v11.52h-1.7v-1.33c-.9,1.04-2.11,1.56-3.61,1.56Z"/><path class="cls-1" d="M349.39,158.96c-1,0-1.76-.24-2.3-.71-.54-.48-.8-1.17-.8-2.07v-7.52h-2.48v-1.45h2.48v-2.92l1.68-.44v3.36h3.47v1.45h-3.47v7.08c0,.61.14,1.05.41,1.32.28.27.73.4,1.36.4.32,0,.61-.02.86-.07s.53-.12.82-.23v1.5c-.29.11-.62.18-.98.23s-.71.07-1.05.07Z"/><path class="cls-1" d="M354.1,145c-.31,0-.58-.12-.8-.35-.23-.23-.34-.51-.34-.83s.11-.57.34-.79c.23-.22.5-.33.8-.33.32,0,.59.11.82.33.22.22.33.49.33.82s-.11.57-.33.8c-.22.23-.49.35-.82.35ZM353.25,158.73v-11.52h1.7v11.52h-1.7Z"/><path class="cls-1" d="M361.53,158.96c-.95,0-1.84-.16-2.68-.47-.84-.31-1.56-.75-2.17-1.32l1.03-1.1c.54.49,1.13.87,1.77,1.14s1.3.4,1.98.4c.92,0,1.67-.19,2.25-.58.58-.38.87-.88.87-1.49,0-.51-.17-.9-.52-1.18-.35-.28-.89-.48-1.62-.59l-2-.28c-1.15-.17-2-.51-2.56-1.03s-.84-1.23-.84-2.12c0-.64.18-1.22.55-1.73.37-.51.88-.9,1.53-1.2.65-.29,1.4-.44,2.24-.44s1.63.12,2.37.37,1.46.63,2.16,1.15l-.9,1.15c-.64-.44-1.27-.77-1.87-.98s-1.22-.31-1.85-.31c-.8,0-1.44.18-1.93.53-.49.35-.74.81-.74,1.38,0,.52.17.92.51,1.18s.88.46,1.63.56l2,.28c1.15.15,2.01.49,2.59,1.01.58.52.86,1.23.86,2.14,0,.66-.21,1.26-.62,1.79-.41.54-.97.96-1.67,1.27-.7.31-1.49.46-2.38.46Z"/><path class="cls-1" d="M368.11,158.73v-11.52h1.7v1.27c.87-1,2-1.5,3.38-1.5.81,0,1.53.19,2.16.56.63.38,1.12.89,1.47,1.53.47-.71,1.04-1.23,1.7-1.58.66-.35,1.41-.52,2.25-.52s1.58.19,2.21.56c.63.38,1.12.9,1.48,1.56s.54,1.45.54,2.33v7.29h-1.68v-6.95c0-1.03-.27-1.84-.8-2.43-.54-.59-1.26-.89-2.19-.89-.63,0-1.2.16-1.72.47-.52.31-.97.79-1.33,1.41.03.17.06.34.08.52.02.18.04.36.04.56v7.29h-1.68v-6.95c0-1.03-.27-1.84-.8-2.43-.54-.59-1.26-.89-2.16-.89-.61,0-1.17.14-1.67.43-.5.28-.92.7-1.28,1.25v8.58h-1.7Z"/><path class="cls-1" d="M393.27,158.94c-1.1,0-2.1-.26-3-.79-.9-.53-1.61-1.25-2.14-2.15-.53-.9-.79-1.92-.79-3.04s.25-2.1.76-3,1.19-1.61,2.05-2.14c.86-.53,1.82-.79,2.88-.79s1.95.26,2.77.79c.82.53,1.47,1.24,1.96,2.14.48.9.72,1.9.72,3v.53h-9.45c.09.75.33,1.43.72,2.02.39.6.9,1.07,1.53,1.41.63.35,1.32.52,2.07.52.6,0,1.18-.09,1.75-.28s1.04-.44,1.43-.78l1.06,1.13c-.64.48-1.32.83-2.01,1.07-.7.24-1.46.36-2.29.36ZM389.06,152.13h7.71c-.09-.69-.32-1.31-.68-1.85-.36-.54-.81-.97-1.35-1.29-.54-.31-1.13-.47-1.77-.47s-1.26.15-1.82.46c-.55.31-1.01.73-1.38,1.28-.37.54-.61,1.17-.71,1.87Z"/><path class="cls-1" d="M5.93,182.94c-1.1,0-2.1-.26-3-.79-.9-.53-1.61-1.25-2.14-2.15-.53-.9-.79-1.92-.79-3.04s.25-2.1.76-3,1.19-1.61,2.05-2.14c.86-.53,1.82-.79,2.88-.79s1.95.26,2.77.79c.82.53,1.47,1.24,1.96,2.14.48.9.72,1.9.72,3v.53H1.68c.09.75.33,1.43.72,2.02.39.6.9,1.07,1.53,1.41.63.35,1.32.52,2.07.52.6,0,1.18-.09,1.75-.28s1.04-.44,1.43-.78l1.06,1.13c-.64.48-1.32.83-2.01,1.07-.7.24-1.46.36-2.29.36ZM1.72,176.13h7.71c-.09-.69-.32-1.31-.68-1.85-.36-.54-.81-.97-1.35-1.29-.54-.31-1.13-.47-1.77-.47s-1.26.15-1.82.46c-.55.31-1.01.73-1.38,1.28-.37.54-.61,1.17-.71,1.87Z"/><path class="cls-1" d="M17.69,182.96c-1,0-1.76-.24-2.3-.71-.54-.48-.8-1.17-.8-2.07v-7.52h-2.48v-1.45h2.48v-2.92l1.68-.44v3.36h3.47v1.45h-3.47v7.08c0,.61.14,1.05.41,1.32.28.27.73.4,1.36.4.32,0,.61-.02.86-.07s.53-.12.82-.23v1.5c-.29.11-.62.18-.98.23s-.71.07-1.05.07Z"/><path class="cls-1" d="M26.5,182.73v-16.1l1.7-.39v16.49h-1.7Z"/><path class="cls-1" d="M36.5,182.94c-1.1,0-2.1-.26-3-.79-.9-.53-1.61-1.25-2.14-2.15-.53-.9-.79-1.92-.79-3.04s.25-2.1.76-3,1.19-1.61,2.05-2.14c.86-.53,1.82-.79,2.88-.79s1.95.26,2.77.79c.82.53,1.47,1.24,1.96,2.14.48.9.72,1.9.72,3v.53h-9.45c.09.75.33,1.43.72,2.02.39.6.9,1.07,1.53,1.41.63.35,1.32.52,2.07.52.6,0,1.18-.09,1.75-.28s1.04-.44,1.43-.78l1.06,1.13c-.64.48-1.32.83-2.01,1.07-.7.24-1.46.36-2.29.36ZM32.29,176.13h7.71c-.09-.69-.32-1.31-.68-1.85-.36-.54-.81-.97-1.35-1.29-.54-.31-1.13-.47-1.77-.47s-1.26.15-1.82.46c-.55.31-1.01.73-1.38,1.28-.37.54-.61,1.17-.71,1.87Z"/><path class="cls-1" d="M47.86,182.96c-.95,0-1.84-.16-2.68-.47-.84-.31-1.56-.75-2.17-1.32l1.03-1.1c.54.49,1.13.87,1.77,1.14s1.3.4,1.98.4c.92,0,1.67-.19,2.25-.58.58-.38.87-.88.87-1.49,0-.51-.17-.9-.52-1.18-.35-.28-.89-.48-1.62-.59l-2-.28c-1.15-.17-2-.51-2.56-1.03s-.84-1.23-.84-2.12c0-.64.18-1.22.55-1.73.37-.51.88-.9,1.53-1.2.65-.29,1.4-.44,2.24-.44s1.63.12,2.37.37,1.46.63,2.16,1.15l-.9,1.15c-.64-.44-1.27-.77-1.87-.98s-1.22-.31-1.85-.31c-.8,0-1.44.18-1.93.53-.49.35-.74.81-.74,1.38,0,.52.17.92.51,1.18s.88.46,1.63.56l2,.28c1.15.15,2.01.49,2.59,1.01.58.52.86,1.23.86,2.14,0,.66-.21,1.26-.62,1.79-.41.54-.97.96-1.67,1.27-.7.31-1.49.46-2.38.46Z"/><path class="cls-1" d="M63.92,182.96c-1,0-1.76-.24-2.3-.71-.54-.48-.8-1.17-.8-2.07v-7.52h-2.48v-1.45h2.48v-2.92l1.68-.44v3.36h3.47v1.45h-3.47v7.08c0,.61.14,1.05.41,1.32.28.27.73.4,1.36.4.32,0,.61-.02.86-.07s.53-.12.82-.23v1.5c-.29.11-.62.18-.98.23s-.71.07-1.05.07Z"/><path class="cls-1" d="M67.78,182.73v-11.52h1.7v1.63c.35-.6.8-1.06,1.34-1.39.54-.33,1.17-.49,1.88-.49.4,0,.76.05,1.08.16v1.56c-.2-.08-.4-.13-.6-.16s-.4-.05-.6-.05c-.71,0-1.32.2-1.85.61-.53.41-.95.99-1.25,1.76v7.89h-1.7Z"/><path class="cls-1" d="M80.29,182.96c-1.09,0-2.08-.26-2.98-.79-.9-.53-1.61-1.25-2.13-2.15-.52-.9-.78-1.92-.78-3.04s.26-2.13.78-3.04c.52-.9,1.23-1.62,2.13-2.15.9-.53,1.89-.79,2.98-.79s2.1.26,2.99.79,1.59,1.25,2.12,2.15c.52.91.78,1.92.78,3.04s-.26,2.13-.78,3.04-1.23,1.62-2.12,2.15-1.89.79-2.99.79ZM80.29,181.45c.78,0,1.49-.2,2.13-.6.64-.4,1.14-.94,1.52-1.61.38-.67.56-1.43.56-2.25s-.19-1.6-.56-2.27-.88-1.2-1.52-1.6c-.64-.4-1.35-.6-2.13-.6s-1.49.2-2.13.6c-.64.4-1.14.93-1.52,1.6s-.56,1.42-.56,2.27.19,1.58.56,2.25c.38.67.88,1.21,1.52,1.61.64.4,1.35.6,2.13.6Z"/><path class="cls-1" d="M92.96,182.96c-.87,0-1.65-.19-2.32-.56s-1.2-.9-1.58-1.56c-.38-.67-.56-1.45-.56-2.33v-7.29h1.68v6.95c0,1.03.29,1.84.87,2.43.58.59,1.36.89,2.35.89.69,0,1.31-.16,1.85-.47s.99-.76,1.32-1.32v-8.46h1.7v11.52h-1.7v-1.33c-.9,1.04-2.11,1.56-3.61,1.56Z"/><path class="cls-1" d="M101.18,182.73v-16.1l1.7-.39v6.19c.98-.94,2.21-1.4,3.7-1.4,1.09,0,2.07.26,2.94.79.87.53,1.57,1.24,2.08,2.13.51.89.77,1.89.77,3.01s-.26,2.13-.77,3.02c-.51.9-1.21,1.61-2.08,2.14-.87.53-1.86.79-2.97.79-.67,0-1.33-.12-1.97-.35-.64-.23-1.21-.56-1.74-.99v1.15h-1.68ZM106.42,181.42c.81,0,1.54-.2,2.18-.59.64-.39,1.15-.92,1.53-1.59s.56-1.42.56-2.27-.19-1.6-.56-2.28-.88-1.21-1.53-1.6c-.64-.39-1.37-.59-2.18-.59-.72,0-1.39.14-2.01.43-.62.28-1.13.68-1.53,1.18v5.7c.4.49.91.88,1.54,1.16.63.28,1.29.43,2,.43Z"/><path class="cls-1" d="M114.75,182.73v-16.1l1.7-.39v16.49h-1.7Z"/><path class="cls-1" d="M124.75,182.94c-1.1,0-2.1-.26-3-.79-.9-.53-1.61-1.25-2.14-2.15-.53-.9-.79-1.92-.79-3.04s.25-2.1.76-3,1.19-1.61,2.05-2.14c.86-.53,1.82-.79,2.88-.79s1.95.26,2.77.79c.82.53,1.47,1.24,1.96,2.14.48.9.72,1.9.72,3v.53h-9.45c.09.75.33,1.43.72,2.02.39.6.9,1.07,1.53,1.41.63.35,1.32.52,2.07.52.6,0,1.18-.09,1.75-.28s1.04-.44,1.43-.78l1.06,1.13c-.64.48-1.32.83-2.01,1.07-.7.24-1.46.36-2.29.36ZM120.54,176.13h7.71c-.09-.69-.32-1.31-.68-1.85-.36-.54-.81-.97-1.35-1.29-.54-.31-1.13-.47-1.77-.47s-1.26.15-1.82.46c-.55.31-1.01.73-1.38,1.28-.37.54-.61,1.17-.71,1.87Z"/><path class="cls-1" d="M136.11,182.96c-.95,0-1.84-.16-2.68-.47-.84-.31-1.56-.75-2.17-1.32l1.03-1.1c.54.49,1.13.87,1.77,1.14s1.3.4,1.98.4c.92,0,1.67-.19,2.25-.58.58-.38.87-.88.87-1.49,0-.51-.17-.9-.52-1.18-.35-.28-.89-.48-1.62-.59l-2-.28c-1.15-.17-2-.51-2.56-1.03s-.84-1.23-.84-2.12c0-.64.18-1.22.55-1.73.37-.51.88-.9,1.53-1.2.65-.29,1.4-.44,2.24-.44s1.63.12,2.37.37,1.46.63,2.16,1.15l-.9,1.15c-.64-.44-1.27-.77-1.87-.98s-1.22-.31-1.85-.31c-.8,0-1.44.18-1.93.53-.49.35-.74.81-.74,1.38,0,.52.17.92.51,1.18s.88.46,1.63.56l2,.28c1.15.15,2.01.49,2.59,1.01.58.52.86,1.23.86,2.14,0,.66-.21,1.26-.62,1.79-.41.54-.97.96-1.67,1.27-.7.31-1.49.46-2.38.46Z"/><path class="cls-1" d="M152.9,182.92c-1.07,0-2.05-.26-2.93-.79-.88-.53-1.58-1.24-2.09-2.14s-.77-1.9-.77-3.02.26-2.12.77-3.01c.51-.89,1.21-1.6,2.09-2.13.88-.53,1.87-.79,2.96-.79.67,0,1.33.11,1.96.33.63.22,1.2.55,1.72.98v-5.7l1.7-.39v16.49h-1.68v-1.22c-1.01.94-2.25,1.4-3.73,1.4ZM153.06,181.42c.72,0,1.39-.14,2.01-.43s1.13-.68,1.53-1.18v-5.7c-.4-.49-.91-.88-1.53-1.16-.62-.28-1.29-.43-2.01-.43-.8,0-1.52.19-2.17.57-.65.38-1.17.91-1.54,1.58s-.56,1.42-.56,2.27.19,1.6.56,2.28c.38.67.89,1.21,1.54,1.61.65.4,1.38.6,2.17.6Z"/><path class="cls-1" d="M165.62,182.96c-.87,0-1.65-.19-2.32-.56s-1.2-.9-1.58-1.56c-.38-.67-.56-1.45-.56-2.33v-7.29h1.68v6.95c0,1.03.29,1.84.87,2.43.58.59,1.36.89,2.35.89.69,0,1.31-.16,1.85-.47s.99-.76,1.32-1.32v-8.46h1.7v11.52h-1.7v-1.33c-.9,1.04-2.11,1.56-3.61,1.56Z"/><path class="cls-1" d="M178.78,182.73v-11.52h1.7v1.36c.9-1.06,2.12-1.59,3.63-1.59.87,0,1.64.19,2.31.56.67.38,1.19.9,1.56,1.56s.56,1.45.56,2.33v7.29h-1.68v-6.95c0-1.03-.29-1.84-.86-2.43-.58-.59-1.36-.89-2.36-.89-.69,0-1.3.15-1.84.46-.54.31-.98.74-1.33,1.31v8.49h-1.7Z"/><path class="cls-1" d="M196.81,182.94c-1.1,0-2.1-.26-3-.79-.9-.53-1.61-1.25-2.14-2.15-.53-.9-.79-1.92-.79-3.04s.25-2.1.76-3,1.19-1.61,2.05-2.14c.86-.53,1.82-.79,2.88-.79s1.95.26,2.77.79c.82.53,1.47,1.24,1.96,2.14.48.9.72,1.9.72,3v.53h-9.45c.09.75.33,1.43.72,2.02.39.6.9,1.07,1.53,1.41.63.35,1.32.52,2.07.52.6,0,1.18-.09,1.75-.28s1.04-.44,1.43-.78l1.06,1.13c-.64.48-1.32.83-2.01,1.07-.7.24-1.46.36-2.29.36ZM192.6,176.13h7.71c-.09-.69-.32-1.31-.68-1.85-.36-.54-.81-.97-1.35-1.29-.54-.31-1.13-.47-1.77-.47s-1.26.15-1.82.46c-.55.31-1.01.73-1.38,1.28-.37.54-.61,1.17-.71,1.87Z"/><path class="cls-1" d="M208.79,182.96c-.87,0-1.65-.19-2.32-.56s-1.2-.9-1.58-1.56c-.38-.67-.56-1.45-.56-2.33v-7.29h1.68v6.95c0,1.03.29,1.84.87,2.43.58.59,1.36.89,2.35.89.69,0,1.31-.16,1.85-.47s.99-.76,1.32-1.32v-8.46h1.7v11.52h-1.7v-1.33c-.9,1.04-2.11,1.56-3.61,1.56Z"/><path class="cls-1" d="M217,182.73v-11.52h1.7v1.63c.35-.6.8-1.06,1.34-1.39.54-.33,1.17-.49,1.88-.49.4,0,.76.05,1.08.16v1.56c-.2-.08-.4-.13-.6-.16s-.4-.05-.6-.05c-.71,0-1.32.2-1.85.61-.53.41-.95.99-1.25,1.76v7.89h-1.7Z"/><path class="cls-1" d="M229.52,182.96c-1.09,0-2.08-.26-2.98-.79-.9-.53-1.61-1.25-2.13-2.15-.52-.9-.78-1.92-.78-3.04s.26-2.13.78-3.04c.52-.9,1.23-1.62,2.13-2.15.9-.53,1.89-.79,2.98-.79s2.1.26,2.99.79,1.59,1.25,2.12,2.15c.52.91.78,1.92.78,3.04s-.26,2.13-.78,3.04-1.23,1.62-2.12,2.15-1.89.79-2.99.79ZM229.52,181.45c.78,0,1.49-.2,2.13-.6.64-.4,1.14-.94,1.52-1.61.38-.67.56-1.43.56-2.25s-.19-1.6-.56-2.27-.88-1.2-1.52-1.6c-.64-.4-1.35-.6-2.13-.6s-1.49.2-2.13.6c-.64.4-1.14.93-1.52,1.6s-.56,1.42-.56,2.27.19,1.58.56,2.25c.38.67.88,1.21,1.52,1.61.64.4,1.35.6,2.13.6Z"/><path class="cls-1" d="M243.04,182.92c-1.07,0-2.05-.26-2.93-.79-.88-.53-1.58-1.24-2.09-2.14s-.77-1.9-.77-3.02.26-2.12.77-3.01c.51-.89,1.21-1.6,2.09-2.13.88-.53,1.87-.79,2.96-.79.67,0,1.33.11,1.96.33.63.22,1.2.55,1.72.98v-5.7l1.7-.39v16.49h-1.68v-1.22c-1.01.94-2.25,1.4-3.73,1.4ZM243.2,181.42c.72,0,1.39-.14,2.01-.43s1.13-.68,1.53-1.18v-5.7c-.4-.49-.91-.88-1.53-1.16-.62-.28-1.29-.43-2.01-.43-.8,0-1.52.19-2.17.57-.65.38-1.17.91-1.54,1.58s-.56,1.42-.56,2.27.19,1.6.56,2.28c.38.67.89,1.21,1.54,1.61.65.4,1.38.6,2.17.6Z"/><path class="cls-1" d="M256.75,182.94c-1.1,0-2.1-.26-3-.79-.9-.53-1.61-1.25-2.14-2.15-.53-.9-.79-1.92-.79-3.04s.25-2.1.76-3,1.19-1.61,2.05-2.14c.86-.53,1.82-.79,2.88-.79s1.95.26,2.77.79c.82.53,1.47,1.24,1.96,2.14.48.9.72,1.9.72,3v.53h-9.45c.09.75.33,1.43.72,2.02.39.6.9,1.07,1.53,1.41.63.35,1.32.52,2.07.52.6,0,1.18-.09,1.75-.28s1.04-.44,1.43-.78l1.06,1.13c-.64.48-1.32.83-2.01,1.07-.7.24-1.46.36-2.29.36ZM252.54,176.13h7.71c-.09-.69-.32-1.31-.68-1.85-.36-.54-.81-.97-1.35-1.29-.54-.31-1.13-.47-1.77-.47s-1.26.15-1.82.46c-.55.31-1.01.73-1.38,1.28-.37.54-.61,1.17-.71,1.87ZM255,168.93l2.16-2.67h2.19l-2.85,2.67h-1.49Z"/><path class="cls-1" d="M267.63,182.73l-4.99-11.52h1.89l3.93,9.31,3.93-9.31h1.82l-4.97,11.52h-1.61Z"/><path class="cls-1" d="M280.83,182.94c-1.1,0-2.1-.26-3-.79-.9-.53-1.61-1.25-2.14-2.15-.53-.9-.79-1.92-.79-3.04s.25-2.1.76-3,1.19-1.61,2.05-2.14c.86-.53,1.82-.79,2.88-.79s1.95.26,2.77.79c.82.53,1.47,1.24,1.96,2.14.48.9.72,1.9.72,3v.53h-9.45c.09.75.33,1.43.72,2.02.39.6.9,1.07,1.53,1.41.63.35,1.32.52,2.07.52.6,0,1.18-.09,1.75-.28s1.04-.44,1.43-.78l1.06,1.13c-.64.48-1.32.83-2.01,1.07-.7.24-1.46.36-2.29.36ZM276.62,176.13h7.71c-.09-.69-.32-1.31-.68-1.85-.36-.54-.81-.97-1.35-1.29-.54-.31-1.13-.47-1.77-.47s-1.26.15-1.82.46c-.55.31-1.01.73-1.38,1.28-.37.54-.61,1.17-.71,1.87Z"/><path class="cls-1" d="M288.4,182.73v-16.1l1.7-.39v16.49h-1.7Z"/><path class="cls-1" d="M298.35,182.96c-1.09,0-2.08-.26-2.98-.79-.9-.53-1.61-1.25-2.13-2.15-.52-.9-.78-1.92-.78-3.04s.26-2.13.78-3.04c.52-.9,1.23-1.62,2.13-2.15.9-.53,1.89-.79,2.98-.79s2.1.26,2.99.79,1.59,1.25,2.12,2.15c.52.91.78,1.92.78,3.04s-.26,2.13-.78,3.04-1.23,1.62-2.12,2.15-1.89.79-2.99.79ZM298.35,181.45c.78,0,1.49-.2,2.13-.6.64-.4,1.14-.94,1.52-1.61.38-.67.56-1.43.56-2.25s-.19-1.6-.56-2.27-.88-1.2-1.52-1.6c-.64-.4-1.35-.6-2.13-.6s-1.49.2-2.13.6c-.64.4-1.14.93-1.52,1.6s-.56,1.42-.56,2.27.19,1.58.56,2.25c.38.67.88,1.21,1.52,1.61.64.4,1.35.6,2.13.6Z"/><path class="cls-1" d="M306.61,187.43v-16.21h1.68v1.24c1-.95,2.24-1.43,3.73-1.43,1.09,0,2.07.26,2.94.79.87.53,1.57,1.24,2.08,2.13.51.89.77,1.89.77,3.01s-.26,2.13-.77,3.02c-.51.9-1.21,1.61-2.08,2.14-.87.53-1.86.79-2.97.79-.67,0-1.33-.12-1.96-.35s-1.2-.56-1.72-.99v5.84h-1.7ZM311.86,181.42c.81,0,1.54-.2,2.18-.59.64-.39,1.15-.92,1.53-1.59s.56-1.42.56-2.27-.19-1.6-.56-2.28-.88-1.21-1.53-1.6c-.64-.39-1.37-.59-2.18-.59-.72,0-1.39.14-2.01.43-.62.28-1.13.68-1.53,1.18v5.7c.4.49.91.88,1.54,1.16.63.28,1.29.43,2,.43Z"/><path class="cls-1" d="M320.18,187.43v-16.21h1.68v1.24c1-.95,2.24-1.43,3.73-1.43,1.09,0,2.07.26,2.94.79.87.53,1.57,1.24,2.08,2.13.51.89.77,1.89.77,3.01s-.26,2.13-.77,3.02c-.51.9-1.21,1.61-2.08,2.14-.87.53-1.86.79-2.97.79-.67,0-1.33-.12-1.96-.35s-1.2-.56-1.72-.99v5.84h-1.7ZM325.43,181.42c.81,0,1.54-.2,2.18-.59.64-.39,1.15-.92,1.53-1.59s.56-1.42.56-2.27-.19-1.6-.56-2.28-.88-1.21-1.53-1.6c-.64-.39-1.37-.59-2.18-.59-.72,0-1.39.14-2.01.43-.62.28-1.13.68-1.53,1.18v5.7c.4.49.91.88,1.54,1.16.63.28,1.29.43,2,.43Z"/><path class="cls-1" d="M339.16,182.94c-1.1,0-2.1-.26-3-.79-.9-.53-1.61-1.25-2.14-2.15-.53-.9-.79-1.92-.79-3.04s.25-2.1.76-3,1.19-1.61,2.05-2.14c.86-.53,1.82-.79,2.88-.79s1.95.26,2.77.79c.82.53,1.47,1.24,1.96,2.14.48.9.72,1.9.72,3v.53h-9.45c.09.75.33,1.43.72,2.02.39.6.9,1.07,1.53,1.41.63.35,1.32.52,2.07.52.6,0,1.18-.09,1.75-.28s1.04-.44,1.43-.78l1.06,1.13c-.64.48-1.32.83-2.01,1.07-.7.24-1.46.36-2.29.36ZM334.95,176.13h7.71c-.09-.69-.32-1.31-.68-1.85-.36-.54-.81-.97-1.35-1.29-.54-.31-1.13-.47-1.77-.47s-1.26.15-1.82.46c-.55.31-1.01.73-1.38,1.28-.37.54-.61,1.17-.71,1.87Z"/><path class="cls-1" d="M346.72,182.73v-11.52h1.7v1.27c.87-1,2-1.5,3.38-1.5.81,0,1.53.19,2.16.56.63.38,1.12.89,1.47,1.53.47-.71,1.04-1.23,1.7-1.58.66-.35,1.41-.52,2.25-.52s1.58.19,2.21.56c.63.38,1.12.9,1.48,1.56s.54,1.45.54,2.33v7.29h-1.68v-6.95c0-1.03-.27-1.84-.8-2.43-.54-.59-1.26-.89-2.19-.89-.63,0-1.2.16-1.72.47-.52.31-.97.79-1.33,1.41.03.17.06.34.08.52.02.18.04.36.04.56v7.29h-1.68v-6.95c0-1.03-.27-1.84-.8-2.43-.54-.59-1.26-.89-2.16-.89-.61,0-1.17.14-1.67.43-.5.28-.92.7-1.28,1.25v8.58h-1.7Z"/><path class="cls-1" d="M371.88,182.94c-1.1,0-2.1-.26-3-.79-.9-.53-1.61-1.25-2.14-2.15-.53-.9-.79-1.92-.79-3.04s.25-2.1.76-3,1.19-1.61,2.05-2.14c.86-.53,1.82-.79,2.88-.79s1.95.26,2.77.79c.82.53,1.47,1.24,1.96,2.14.48.9.72,1.9.72,3v.53h-9.45c.09.75.33,1.43.72,2.02.39.6.9,1.07,1.53,1.41.63.35,1.32.52,2.07.52.6,0,1.18-.09,1.75-.28s1.04-.44,1.43-.78l1.06,1.13c-.64.48-1.32.83-2.01,1.07-.7.24-1.46.36-2.29.36ZM367.68,176.13h7.71c-.09-.69-.32-1.31-.68-1.85-.36-.54-.81-.97-1.35-1.29-.54-.31-1.13-.47-1.77-.47s-1.26.15-1.82.46c-.55.31-1.01.73-1.38,1.28-.37.54-.61,1.17-.71,1.87Z"/><path class="cls-1" d="M379.45,182.73v-11.52h1.7v1.36c.9-1.06,2.12-1.59,3.63-1.59.87,0,1.64.19,2.31.56.67.38,1.19.9,1.56,1.56s.56,1.45.56,2.33v7.29h-1.68v-6.95c0-1.03-.29-1.84-.86-2.43-.58-.59-1.36-.89-2.36-.89-.69,0-1.3.15-1.84.46-.54.31-.98.74-1.33,1.31v8.49h-1.7Z"/><path class="cls-1" d="M396.27,182.96c-1,0-1.76-.24-2.3-.71-.54-.48-.8-1.17-.8-2.07v-7.52h-2.48v-1.45h2.48v-2.92l1.68-.44v3.36h3.47v1.45h-3.47v7.08c0,.61.14,1.05.41,1.32.28.27.73.4,1.36.4.32,0,.61-.02.86-.07s.53-.12.82-.23v1.5c-.29.11-.62.18-.98.23s-.71.07-1.05.07Z"/><path class="cls-1" d="M401.55,182.87c-.32,0-.6-.12-.83-.35-.23-.23-.34-.51-.34-.83s.12-.6.34-.83c.23-.23.51-.35.83-.35s.6.12.83.35c.23.23.34.51.34.83s-.12.6-.34.83c-.23.23-.51.35-.83.35Z"/><path class="cls-1" d="M129.72.16h14.13l18.19,30.12L180.38.16h14.13v57.24h-12.59V20.62l-19.89,32.31-19.73-32.31v36.78h-12.59V.16Z"/><path class="cls-1" d="M222.93,11.29c4.38,0,8.08,1.45,11.08,4.34,3,2.9,4.51,7.43,4.51,13.6v28.17h-11.85v-5.76c-3.3,4.55-8.07,6.82-14.29,6.82-3.68,0-6.97-1.11-9.87-3.33-2.9-2.22-4.34-5.3-4.34-9.26,0-5.25,1.81-9.24,5.44-11.98,3.63-2.73,8.01-4.1,13.15-4.1h9.99v-.49c0-4.76-2.06-7.15-6.17-7.15-2.11,0-4.21.3-6.29.89-2.08.6-3.64,1.19-4.67,1.79l-1.54.89-4.47-8.69c.22-.16.51-.37.89-.61.38-.24,1.2-.7,2.48-1.38,1.27-.68,2.61-1.27,4.02-1.79,1.41-.51,3.19-.97,5.36-1.38,2.16-.41,4.36-.61,6.58-.61ZM217.24,37.67c-4.76,0-7.15,2.11-7.15,6.33,0,1.73.58,3.1,1.75,4.1,1.16,1,2.83,1.5,4.99,1.5,2.81,0,5.16-1.23,7.02-3.69,1.87-2.46,2.8-4.8,2.8-7.02v-1.22h-9.42Z"/><path class="cls-1" d="M271.15,11.29v11.77c-5.03,0-8.73,1.35-11.08,4.06-2.36,2.71-3.53,5.87-3.53,9.5v20.79h-11.85V12.26h11.85v6.5c1.62-2.33,3.72-4.15,6.29-5.48,2.57-1.33,5.35-1.99,8.32-1.99Z"/><path class="cls-1" d="M318.57,11.2v9.26h-1.14c-3.46,0-5.2.73-5.2,2.19.16.76.24,1.98.24,3.65,0,4.87-1.6,8.58-4.79,11.12-3.19,2.54-7.66,3.82-13.4,3.82-2.92,0-5.39-.3-7.39-.89-.49.76-.73,1.62-.73,2.6,0,.81.3,1.42.89,1.83s1.23.65,1.91.73c.68.08,1.64.12,2.88.12h2.44c3.14,0,6.01.24,8.61.73,2.6.49,5.06,1.27,7.39,2.35,2.33,1.08,4.15,2.68,5.48,4.79,1.33,2.11,1.99,4.65,1.99,7.63,0,10.07-7.82,15.1-23.46,15.1s-23.46-5.03-23.46-15.1c0-4.6,2.71-7.98,8.12-10.15-1.57-1.73-2.35-3.76-2.35-6.09,0-3.14,1.79-5.39,5.36-6.74-3.9-2.65-5.85-6.6-5.85-11.85,0-4.87,1.6-8.59,4.79-11.16,3.19-2.57,7.66-3.86,13.4-3.86s10.45,1.35,13.64,4.06c2.06-2.76,5.6-4.14,10.64-4.14ZM296.41,56.19h-2.35c-1.46,0-2.59.01-3.37.04-.79.03-1.79.12-3,.28-1.22.16-2.14.41-2.76.73-.62.33-1.18.81-1.66,1.46s-.73,1.46-.73,2.44c0,1.24.33,2.27.97,3.08.65.81,1.61,1.41,2.88,1.79,1.27.38,2.49.62,3.65.73,1.16.11,2.58.16,4.26.16s3.1-.05,4.26-.16c1.16-.11,2.37-.35,3.61-.73,1.24-.38,2.19-.97,2.84-1.79.65-.81.97-1.84.97-3.08,0-2.06-.83-3.4-2.48-4.02-1.65-.62-4.02-.93-7.1-.93ZM299.04,21.84c-1.22-.97-2.8-1.46-4.75-1.46s-3.52.49-4.71,1.46c-1.19.97-1.79,2.46-1.79,4.47,0,3.9,2.16,5.85,6.5,5.85,1.95,0,3.53-.47,4.75-1.42,1.22-.95,1.83-2.42,1.83-4.43s-.61-3.49-1.83-4.47Z"/><path class="cls-1" d="M323.36,17.9c4.44-4.41,9.96-6.62,16.56-6.62s12.12,2.21,16.56,6.62c4.44,4.41,6.66,10.06,6.66,16.93s-2.22,12.53-6.66,16.97c-4.44,4.44-9.96,6.66-16.56,6.66s-12.13-2.22-16.56-6.66c-4.44-4.44-6.66-10.09-6.66-16.97s2.22-12.52,6.66-16.93ZM348.29,25.49c-2.22-2.44-5.01-3.65-8.36-3.65s-6.16,1.22-8.4,3.65c-2.25,2.44-3.37,5.55-3.37,9.34s1.12,6.92,3.37,9.38c2.24,2.46,5.05,3.69,8.4,3.69s6.14-1.23,8.36-3.69c2.22-2.46,3.33-5.59,3.33-9.38s-1.11-6.9-3.33-9.34Z"/><path class="cls-1" d="M372.56,0h11.45v12.26h11.69v10.88h-11.69v15.91c0,1.25.05,2.33.16,3.25.11.92.33,1.84.65,2.76.33.92.84,1.62,1.54,2.11.7.49,1.6.73,2.68.73,1.24,0,2.44-.2,3.57-.61,1.14-.41,1.95-.82,2.44-1.26l.81-.57,3.73,8.61c-.27.33-.69.73-1.26,1.22-.57.49-1.84,1.14-3.82,1.95-1.98.81-4.13,1.22-6.45,1.22-2.76,0-5.14-.46-7.15-1.38-2-.92-3.53-2.07-4.59-3.45-1.06-1.38-1.88-3.19-2.48-5.44-.6-2.25-.96-4.33-1.1-6.25-.14-1.92-.2-4.29-.2-7.1v-11.69h-7.39v-10.88h7.39V0Z"/><path class="cls-1" d="M129.72,71.12h18.92c7.9,0,13.79,1.65,17.66,4.95,3.87,3.3,5.81,7.71,5.81,13.23,0,7.47-3.22,12.69-9.66,15.67l11.85,23.38h-12.91l-9.5-20.87c-.7.05-1.79.08-3.25.08h-6.33v20.79h-12.59v-57.24ZM142.3,82.24v14.21h6.33c4.11,0,7.16-.53,9.13-1.58,1.98-1.06,2.96-2.91,2.96-5.56s-.99-4.49-2.96-5.52c-1.98-1.03-5.02-1.54-9.13-1.54h-6.33Z"/><path class="cls-1" d="M201.25,82.24c5.9,0,10.87,1.99,14.9,5.97,4.03,3.98,6.05,9.68,6.05,17.09,0,1.62-.05,2.87-.16,3.73h-32.32c.54,2.98,1.85,5.35,3.94,7.1,2.08,1.76,4.56,2.64,7.43,2.64,4.27,0,7.52-1.81,9.74-5.44l10.15,5.12c-2.06,3.41-4.82,6.09-8.28,8.04-3.46,1.95-7.33,2.92-11.61,2.92-6.6,0-12.13-2.22-16.56-6.66-4.44-4.44-6.66-10.09-6.66-16.97s2.25-12.52,6.74-16.93c4.49-4.41,10.04-6.62,16.64-6.62ZM201.09,92.8c-2.33,0-4.44.64-6.33,1.91-1.9,1.27-3.3,3.02-4.22,5.24h19.81c0-1.68-.72-3.29-2.15-4.83-1.43-1.54-3.8-2.31-7.1-2.31Z"/><path class="cls-1" d="M226.98,67.06h11.85v20.05c3.25-3.25,7.58-4.87,12.99-4.87,6.5,0,11.76,2.18,15.79,6.54,4.03,4.36,6.05,10.03,6.05,17.01s-2.02,12.67-6.05,17.05c-4.03,4.38-9.3,6.58-15.79,6.58-5.36,0-9.69-1.65-12.99-4.95v3.9h-11.85v-61.3ZM258.89,96.45c-2.22-2.44-5.01-3.65-8.36-3.65s-6.14,1.22-8.36,3.65c-2.22,2.44-3.33,5.55-3.33,9.34s1.11,6.91,3.33,9.38c2.22,2.46,5.01,3.69,8.36,3.69s6.14-1.23,8.36-3.69c2.22-2.46,3.33-5.59,3.33-9.38s-1.11-6.9-3.33-9.34Z"/><path class="cls-1" d="M283.9,88.86c4.44-4.41,9.96-6.62,16.56-6.62s12.12,2.21,16.56,6.62c4.44,4.41,6.66,10.05,6.66,16.93s-2.22,12.53-6.66,16.97c-4.44,4.44-9.96,6.66-16.56,6.66s-12.13-2.22-16.56-6.66c-4.44-4.44-6.66-10.09-6.66-16.97s2.22-12.52,6.66-16.93ZM308.83,96.45c-2.22-2.44-5.01-3.65-8.36-3.65s-6.16,1.22-8.4,3.65c-2.25,2.44-3.37,5.55-3.37,9.34s1.12,6.91,3.37,9.38c2.25,2.46,5.05,3.69,8.4,3.69s6.14-1.23,8.36-3.69c2.22-2.46,3.33-5.59,3.33-9.38s-1.11-6.9-3.33-9.34Z"/><path class="cls-1" d="M328.48,83.22h11.85v24.68c0,7.09,2.6,10.64,7.79,10.64,2.54,0,4.75-.55,6.62-1.66,1.87-1.11,3.21-2.64,4.02-4.59v-29.07h11.85v45.14h-11.85v-6.09c-1.73,2.22-3.95,3.97-6.66,5.24-2.71,1.27-5.39,1.91-8.04,1.91-4.11,0-7.74-1.5-10.88-4.51-3.14-3-4.71-7-4.71-11.98v-29.72Z"/><path class="cls-1" d="M376.7,67.06h11.85v61.3h-11.85v-61.3Z"/><path class="cls-1" d="M108.43,72.03c5.96-10.89,10.43-28.3-2.13-49.43C96.01,5.29,77.94-2.58,56.74,1.02,35.7,4.58,18.15,18.42,15.02,33.88L3.87,84.42h12.19v24.85h23.25l.52,20.15h63.76l-9.52-40.11c3.01-2.47,9.51-8.41,14.35-17.27ZM95.91,123.34h-50.16l-.52-20.15h-23.09v-24.85h-10.7l9.53-43.21c2.62-12.93,18.44-25.02,36.79-28.13,8.8-1.49,30.64-2.66,43.33,18.7,8.86,14.92,9.58,29.46,2.13,43.22-5.68,10.49-14.2,16.64-14.29,16.69l-1.67,1.18,8.67,36.53Z"/><path class="cls-1" d="M80.2,47.62l-.47-.24c-4.04,1.9-9.06,3.03-14.43,3.03s-10.39-1.13-14.42-3.02c-2.25,1.15-4.09,2.54-5.38,4.09,5.24,3.13,12.14,5.01,19.8,5.01s14.54-1.87,19.78-5c-.15-.19-.31-.37-.48-.55-1.15-1.23-2.64-2.34-4.41-3.31Z"/><path class="cls-1" d="M42.67,40.47c-.78-1.41-1.21-2.91-1.21-4.45,0-7.8,10.92-14.38,23.85-14.38,6.02,0,11.61,1.43,15.86,3.75,1.94,1.06,3.61,2.31,4.91,3.69,1.95,2.07,3.07,4.45,3.07,6.95,0,1.54-.43,3.03-1.21,4.43,0,0,0,0,0,0-.16.29-.34.58-.53.86-.19.28-.38.55-.6.82,1.59,1.11,3,2.36,4.18,3.71.11.13.23.27.34.4.22-.27.43-.54.63-.82.22-.28.41-.57.6-.86,0,0,0,0,0,0,1.71-2.59,2.65-5.49,2.65-8.56,0-3.92-1.54-7.56-4.23-10.64-1.36-1.56-3.02-2.97-4.91-4.2-5.35-3.5-12.63-5.62-20.77-5.62-16.78,0-29.92,8.98-29.92,20.46,0,3.08.94,5.98,2.66,8.58,1.31-1.51,2.87-2.89,4.63-4.12Z"/><path class="cls-1" d="M90.99,67.12c2.69-3.08,4.23-6.72,4.23-10.64,0-3.07-.94-5.97-2.65-8.56-.02.02-.03.04-.05.06-1.3,1.49-2.83,2.85-4.58,4.07.78,1.4,1.21,2.89,1.21,4.43,0,2.5-1.12,4.87-3.07,6.95-1.3,1.38-2.97,2.63-4.91,3.69-4.25,2.32-9.84,3.75-15.86,3.75-12.92,0-23.85-6.59-23.85-14.39,0-1.55.43-3.04,1.21-4.45.16-.29.34-.57.53-.86.18-.27.38-.54.59-.8,1.24-1.54,2.92-2.94,4.93-4.12.32-.2.65-.38.99-.55.37-.2.76-.39,1.15-.57,4.04-1.89,9.06-3.02,14.43-3.02s10.39,1.13,14.42,3.02c.16-.07.32-.16.47-.24,1.77-.96,3.25-2.07,4.4-3.29.18-.18.34-.37.49-.56-5.24-3.13-12.13-5-19.79-5s-14.56,1.88-19.8,5.01c-.3.17-.59.35-.88.55-.28.18-.55.36-.82.55-1.75,1.23-3.27,2.61-4.52,4.12-.22.26-.43.53-.63.81-.21.28-.4.56-.59.84-1.71,2.6-2.66,5.5-2.66,8.58,0,11.47,13.14,20.46,29.92,20.46,8.15,0,15.43-2.12,20.77-5.62,1.9-1.23,3.56-2.65,4.91-4.2Z"/><path class="cls-1" d="M90.99,46.65l.34-.4c-.11-.13-.23-.27-.34-.4-1.18-1.36-2.59-2.6-4.18-3.71-.23.28-.47.56-.73.84-1.14,1.21-2.56,2.32-4.2,3.28,0,0,0,0,0,0-.24.14-.47.28-.71.4-.11.06-.22.11-.32.17-.36.2-.73.38-1.11.55l.47.24c1.77.97,3.25,2.08,4.41,3.31.17.18.33.36.48.55.3-.18.59-.36.88-.55.04-.03.07-.05.11-.07.25-.16.49-.32.73-.49h0c1.59-1.11,3-2.36,4.18-3.71Z"/></g></svg>